<svg xmlns="http://www.w3.org/2000/svg" viewBox="0 0 64 64"><!-- created by Mazeltof (https://www.mazeland.fr/) --><path d="M49.993 12.734C45.122 5.197 38.793 1.03 32.17 1.001L32.099 1C25.501 1 19.16 5.109 14.235 12.575 9.678 19.486 7.04 28.249 7 36.616c-.038 8.137 2.46 14.921 7.226 19.619 4.394 4.331 10.662 6.733 17.65 6.764l.137.001c6.932 0 13.17-2.344 17.575-6.607 4.81-4.655 7.373-11.417 7.412-19.554.039-8.367-2.515-17.153-7.007-24.105" style="display:inline;fill:#262626;fill-opacity:1;fill-rule:nonzero;stroke:none;stroke-width:0;stroke-dasharray:none"/><path d="M55 36.737C54.924 52.841 44.587 61.057 31.884 61 19.182 60.943 8.924 52.635 9 36.53c.076-16.103 10.457-33.588 23.16-33.53C44.86 3.056 55.075 20.633 55 36.736" style="display:inline;fill:#fd5;fill-opacity:1;fill-rule:nonzero;stroke:none;stroke-width:0;stroke-dasharray:none"/><path d="M40.845 6c5.133 6.02 8.438 15.254 8.397 24.009-.07 14.642-9.47 22.11-21.02 22.06C19.549 52.028 12.129 47.76 9 39.437c.982 14.474 10.844 21.934 22.904 21.988 12.762.058 23.145-8.194 23.222-24.37C55.184 24.77 49.28 11.635 40.845 6" style="display:inline;fill:#fc0;fill-opacity:1;fill-rule:nonzero;stroke:none;stroke-width:0;stroke-dasharray:none"/><path d="M29.544 19.007c-3.377 4.87-8.528 7.245-11.506 5.304-2.978-1.94-2.654-7.461.723-12.331 3.377-4.87 8.528-7.244 11.506-5.303 2.978 1.94 2.654 7.46-.723 12.33" style="display:inline;fill:#fea;fill-opacity:1;fill-rule:nonzero;stroke:none;stroke-width:0;stroke-dasharray:none"/><g style="display:inline"><path d="M27.625 26.75a.642.642 0 0 0 .625.625.642.642 0 0 0 .625-.625c0-1.347 2.09-1.875 3.125-1.875a.642.642 0 0 0 .625-.625.641.641 0 0 0-.625-.625c-1.816 0-4.375.958-4.375 3.125zm-3.125 0c0-3.906 3.965-6.25 7.5-6.25s7.5 2.344 7.5 6.25c0 1.25-.507 2.559-1.327 3.515-.372.43-.802.84-1.192 1.289-1.386 1.66-2.56 3.614-2.754 5.82h-4.453c-.195-2.208-1.368-4.16-2.754-5.82-.391-.449-.82-.86-1.191-1.289-.82-.958-1.328-2.266-1.328-3.515Zm-2.5 0c0 2.011.664 3.75 2.011 5.235 1.348 1.485 3.125 3.574 3.281 5.664a1.877 1.877 0 0 0-.917 1.601c0 .469.176.917.489 1.25a1.825 1.825 0 0 0-.489 1.25c0 .645.333 1.23.879 1.583a1.897 1.897 0 0 0-.254.917c0 1.27.996 1.875 2.129 1.875A3.17 3.17 0 0 0 32 48a3.17 3.17 0 0 0 2.871-1.875c1.133 0 2.129-.605 2.129-1.875 0-.313-.098-.645-.254-.917a1.874 1.874 0 0 0 .879-1.583c0-.469-.176-.917-.489-1.25a1.826 1.826 0 0 0 .489-1.25c0-.645-.351-1.27-.917-1.601.156-2.09 1.933-4.18 3.28-5.664C41.337 30.501 42 28.762 42 26.75 42 21.437 36.941 18 32 18s-10 3.438-10 8.75Z" style="fill:#262626;fill-opacity:1;stroke:none;stroke-width:0;stroke-dasharray:none"/><path d="M29.73 36.775c-.21-1.252-.751-2.528-1.623-3.826-.536-.798-.817-1.146-1.993-2.467-1.14-1.28-1.622-2.544-1.538-4.04.096-1.719.915-3.155 2.44-4.28 2.457-1.812 5.819-2.116 8.627-.78.924.44 1.319.7 1.959 1.293 1.837 1.701 2.344 4.123 1.32 6.305-.313.667-.723 1.22-1.553 2.094-1.636 1.723-2.798 3.861-3.094 5.698l-.096.594H29.83zm-1.055-9.55c.105-.104.203-.323.235-.52.153-.956 1.132-1.58 2.77-1.763.534-.06.651-.1.8-.274.238-.275.228-.614-.024-.866-.195-.194-.221-.199-.946-.159-2.182.12-3.88 1.432-3.905 3.017-.005.318.027.402.211.56.279.24.623.242.859.006z" style="opacity:1;fill:#fff;fill-opacity:1;fill-rule:evenodd;stroke:none;stroke-width:0;stroke-dasharray:none;paint-order:stroke fill markers"/></g></svg>