<svg xmlns="http://www.w3.org/2000/svg" viewBox="0 0 64 64"><!-- created by Mazeltof (https://www.mazeland.fr/) --><path d="M49.993 12.734C45.122 5.197 38.793 1.03 32.17 1.001L32.099 1C25.501 1 19.16 5.109 14.235 12.575 9.678 19.486 7.04 28.249 7 36.616c-.038 8.137 2.46 14.921 7.226 19.619 4.394 4.331 10.662 6.733 17.65 6.764l.137.001c6.932 0 13.17-2.344 17.575-6.607 4.81-4.655 7.373-11.417 7.412-19.554.039-8.367-2.515-17.153-7.007-24.105" style="display:inline;fill:#262626;fill-opacity:1;fill-rule:nonzero;stroke:none;stroke-width:0;stroke-dasharray:none"/><path d="M55 36.737C54.924 52.841 44.587 61.057 31.884 61 19.182 60.943 8.924 52.635 9 36.53 9.076 20.427 19.457 2.942 32.16 3c12.7.056 22.915 17.633 22.84 33.736" style="display:inline;fill:#fd5;fill-opacity:1;fill-rule:nonzero;stroke:none;stroke-width:0;stroke-dasharray:none"/><path d="M40.845 6c5.133 6.02 8.438 15.254 8.397 24.009-.07 14.642-9.47 22.11-21.02 22.06C19.549 52.028 12.129 47.76 9 39.437c.982 14.474 10.844 21.934 22.904 21.988 12.762.058 23.145-8.194 23.222-24.37C55.184 24.77 49.28 11.635 40.845 6" style="display:inline;fill:#fc0;fill-opacity:1;fill-rule:nonzero;stroke:none;stroke-width:0;stroke-dasharray:none"/><g style="display:inline"><path d="M26.965 16.335c-3.34-.814-6.714.144-9.204 2.613-.34.352-1.593-1.18-1.177-1.605 2.873-2.849 6.767-3.955 10.622-3.016.564.146.224 2.129-.24 2.008" style="fill:#262626;fill-opacity:1;stroke-width:1.0443"/><path d="M46.222 18.95c-2.47-2.498-5.842-3.383-9.2-2.414-.465.146-.786-1.92-.22-2.093 3.873-1.117 7.765-.097 10.616 2.785.413.429-.856 2.076-1.195 1.723" style="display:inline;fill:#262626;fill-opacity:1;stroke-width:1.06955"/></g><g style="display:inline"><path d="M31.035 61.286c-2.306-.484-5.351-2.301-8.57-5.114-2.284-1.996-4.8-4.682-6.879-7.342-3.583-4.585-6.062-9.248-6.878-12.94l-.177-.802V12.7l.173-.458c.944-2.503 4.025-4.16 9.477-5.1 3.142-.541 6.384-.775 11.885-.859 7.083-.107 12.846.255 16.802 1.055 4.817.975 7.545 2.562 8.428 4.904l.173.458v22.388l-.177.802c-1.064 4.81-4.863 11.082-10.175 16.799-3.24 3.486-6.573 6.164-9.457 7.598-1.923.957-3.354 1.265-4.625.999z" style="display:inline;fill:#fff;fill-rule:evenodd;stroke-width:0;paint-order:stroke fill markers" transform="matrix(.95994 0 0 .96405 1.282 .388)"/><path d="M7.726 13.6v20.228c0 9.813 16.4 28.316 24.274 28.32 7.873.004 24.274-18.507 24.274-28.32V13.6C56.274 5.805 40.398 5.51 32 5.51c-8.398 0-24.274.296-24.274 8.091z" class="a" style="fill:#fff;stroke:#262626;stroke-width:1.45228;stroke-linecap:round;stroke-linejoin:round;stroke-opacity:1" transform="matrix(.95994 0 0 .96405 1.282 .388)"/><path d="M29.303 50.011v6.068L32 58.777l2.697-2.698v-6.068zM14.469 35.177l5.394 10.114h9.44L32 42.594l2.697 2.697h9.44l5.394-10.114-6.743 6.068h-5.394L33.35 37.2H30.65l-4.045 4.045h-5.394z" class="a" style="display:inline;fill:#262626;stroke:none;stroke-width:0;stroke-linecap:round;stroke-linejoin:round;stroke-dasharray:none;fill-opacity:1" transform="matrix(.95994 0 0 .96405 1.282 .388)"/><path d="M13.795 20.343c4.228-2.145 7.564-2.934 12.136 2.427a2.074 2.074 0 0 0 2.698 0 2.062 2.062 0 0 0 0-2.697c-5.49-5.59-12.004-5.057-14.834.27z" class="a" style="display:inline;fill:#262626;fill-opacity:1;stroke:none;stroke-width:0;stroke-linecap:round;stroke-linejoin:round;stroke-dasharray:none" transform="matrix(.95994 0 0 .96405 1.282 .388)"/><path d="M50.205 20.343c-4.228-2.145-7.564-2.934-12.136 2.427a2.074 2.074 0 0 1-2.698 0 2.062 2.062 0 0 1 0-2.697c5.49-5.59 12.004-5.057 14.834.27z" class="a" style="display:inline;fill:#262626;stroke:none;stroke-width:0;stroke-linecap:round;stroke-linejoin:round;stroke-dasharray:none;fill-opacity:1" transform="matrix(.95994 0 0 .96405 1.282 .388)"/><path d="m14.469 35.177 5.394 10.114h9.44L32 42.594l2.697 2.697h9.44l5.394-10.114-6.743 6.068h-5.394L33.35 37.2H30.65l-4.045 4.045h-5.394z" class="a" style="display:inline;fill:none;stroke:none;stroke-width:1.45228;stroke-linecap:round;stroke-linejoin:round" transform="matrix(.95994 0 0 .96405 1.282 .388)"/></g><g style="display:inline"><path d="M43.501 33a5.963 5.963 0 0 1-4.244-1.757A5.956 5.956 0 0 1 37.5 27a6.006 6.006 0 0 1 6-5.999c3.308 0 6 2.693 6 6.001a5.96 5.96 0 0 1-1.757 4.242A5.959 5.959 0 0 1 43.5 33" style="fill:#fff;fill-opacity:1;fill-rule:nonzero;stroke:none;stroke-width:0;stroke-dasharray:none"/><path d="M47.5 27a4 4 0 1 0-8 0 4 4 0 0 0 8 0" style="fill:#262626;fill-opacity:1;fill-rule:nonzero;stroke:none;stroke-width:0;stroke-dasharray:none"/><path d="M44.596 24.477a1.095 1.095 0 1 0-2.19 0 1.095 1.095 0 0 0 2.19 0" style="fill:#fff;fill-opacity:1;fill-rule:nonzero;stroke:none;stroke-width:0;stroke-dasharray:none"/></g><g style="display:inline"><path d="M20.502 33a6.007 6.007 0 0 1-6.002-6 6.009 6.009 0 0 1 6-6c3.309 0 6 2.693 6 6 0 1.603-.624 3.11-1.757 4.243A5.958 5.958 0 0 1 20.502 33" style="display:inline;fill:#fff;fill-opacity:1;fill-rule:nonzero;stroke:none;stroke-width:0;stroke-dasharray:none"/><path d="M24.5 27a4 4 0 1 0-8.001 0 4 4 0 0 0 8.001 0" style="fill:#262626;fill-opacity:1;fill-rule:nonzero;stroke:none;stroke-width:0;stroke-dasharray:none"/><path d="M20.5 25.572a1.095 1.095 0 1 0 0-2.19 1.095 1.095 0 0 0 0 2.19" style="fill:#fff;fill-opacity:1;fill-rule:nonzero;stroke:none;stroke-width:0;stroke-dasharray:none"/></g></svg>