<svg xmlns="http://www.w3.org/2000/svg" viewBox="0 0 64 64"><!-- created by Mazeltof (https://www.mazeland.fr/) --><path d="M49.993 12.734C45.122 5.197 38.793 1.03 32.17 1.001L32.099 1C25.501 1 19.16 5.109 14.235 12.575 9.678 19.486 7.04 28.249 7 36.616c-.038 8.137 2.46 14.921 7.226 19.619 4.394 4.331 10.662 6.733 17.65 6.764l.137.001c6.932 0 13.17-2.344 17.575-6.607 4.81-4.655 7.373-11.417 7.412-19.554.039-8.367-2.515-17.153-7.007-24.105" style="display:inline;fill:#262626;fill-opacity:1;fill-rule:nonzero;stroke:none;stroke-width:0;stroke-dasharray:none"/><path d="M55 36.737C54.924 52.841 44.587 61.057 31.884 61 19.182 60.943 8.924 52.635 9 36.53 9.076 20.427 19.457 2.942 32.16 3c12.7.056 22.915 17.633 22.84 33.736" style="display:inline;fill:#fd5;fill-opacity:1;fill-rule:nonzero;stroke:none;stroke-width:0;stroke-dasharray:none"/><path d="M40.845 6c5.133 6.02 8.438 15.254 8.397 24.009-.07 14.642-9.47 22.11-21.02 22.06C19.549 52.028 12.129 47.76 9 39.437c.982 14.474 10.844 21.934 22.904 21.988 12.762.058 23.145-8.194 23.222-24.37C55.184 24.77 49.28 11.635 40.845 6" style="display:inline;fill:#fc0;fill-opacity:1;fill-rule:nonzero;stroke:none;stroke-width:0;stroke-dasharray:none"/><path d="M29.544 19.007c-3.377 4.87-8.528 7.245-11.506 5.304-2.978-1.94-2.654-7.461.723-12.331 3.377-4.87 8.528-7.244 11.506-5.303 2.978 1.94 2.654 7.46-.723 12.33" style="display:inline;fill:#fea;fill-opacity:1;fill-rule:nonzero;stroke:none;stroke-width:0;stroke-dasharray:none"/><path d="M19.035 50.033c-.625-.15-1.086-.66-1.086-1.269 0-.725.657-1.313 1.467-1.314.213 0 .433-.264.877-.9.593-.85 1.49-2.136 3.36-2.135 1.87 0 2.768 1.284 3.36 2.134.444.636.66.898.877.902.211 0 .44-.278.874-.902.593-.85 1.488-2.134 3.36-2.135 1.87.002 2.767 1.286 3.359 2.136.432.622.655.902.871.901.211 0 .44-.277.874-.9.593-.85 1.49-2.136 3.36-2.137 1.87-.001 2.764 1.284 3.357 2.136.434.623.663.896.873.901.812-.002 1.465.59 1.464 1.316 0 .727-.657 1.314-1.466 1.313-1.872 0-2.765-1.286-3.358-2.138-.432-.621-.667-.897-.87-.898-.212 0-.442.277-.875.9-.593.85-1.489 2.137-3.36 2.137-1.864.002-2.763-1.287-3.357-2.136-.434-.623-.665-.9-.875-.902-.208 0-.439.278-.873.9-.592.85-1.488 2.135-3.359 2.138-1.869 0-2.767-1.286-3.36-2.136-.444-.635-.663-.904-.877-.9-.214 0-.433.264-.876.9-.594.85-1.49 2.136-3.362 2.135a1.672 1.672 0 0 1-.38-.047" style="display:inline;fill:#262626;fill-opacity:1;stroke:none;stroke-width:0;stroke-dasharray:none;stroke-opacity:1" transform="translate(-2.005 -4.027) scale(1.05882)"/><path d="M25.67 24.92a1.124 1.124 0 1 0-1.59-1.59l-3.58 3.58-3.58-3.58a1.124 1.124 0 1 0-1.59 1.59l3.58 3.58-3.58 3.58a1.124 1.124 0 1 0 1.59 1.59l3.58-3.58 3.58 3.58a1.124 1.124 0 1 0 1.59-1.59l-3.58-3.58Z" style="stroke-width:.5;stroke-dasharray:none;stroke:#262626;fill:#262626;fill-opacity:1;stroke-opacity:1"/><path d="M48.67 24.92a1.124 1.124 0 1 0-1.59-1.59l-3.58 3.58-3.58-3.58a1.124 1.124 0 1 0-1.59 1.59l3.58 3.58-3.58 3.58a1.124 1.124 0 1 0 1.59 1.59l3.58-3.58 3.58 3.58a1.124 1.124 0 1 0 1.59-1.59l-3.58-3.58Z" style="fill:#262626;fill-opacity:1;stroke:#262626;stroke-width:.5;stroke-dasharray:none;stroke-opacity:1"/></svg>