<svg xmlns="http://www.w3.org/2000/svg" viewBox="0 0 64 64"><!-- created by Mazeltof (https://www.mazeland.fr/) --><path d="M49.993 12.734C45.122 5.197 38.793 1.03 32.17 1.001L32.099 1C25.501 1 19.16 5.109 14.235 12.575 9.678 19.486 7.04 28.249 7 36.616c-.038 8.137 2.46 14.921 7.226 19.619 4.394 4.331 10.662 6.733 17.65 6.764l.137.001c6.932 0 13.17-2.344 17.575-6.607 4.81-4.655 7.373-11.417 7.412-19.554.039-8.367-2.515-17.153-7.007-24.105" style="display:inline;fill:#262626;fill-opacity:1;fill-rule:nonzero;stroke:none;stroke-width:0;stroke-dasharray:none"/><path d="M55 36.737C54.924 52.841 44.587 61.057 31.884 61 19.182 60.943 8.924 52.635 9 36.53 9.076 20.427 19.457 2.942 32.16 3c12.7.056 22.915 17.633 22.84 33.736" style="display:inline;fill:#fd5;fill-opacity:1;fill-rule:nonzero;stroke:none;stroke-width:0;stroke-dasharray:none"/><path d="M40.845 6c5.133 6.02 8.438 15.254 8.397 24.009-.07 14.642-9.47 22.11-21.02 22.06C19.549 52.028 12.129 47.76 9 39.437c.982 14.474 10.844 21.934 22.904 21.988 12.762.058 23.145-8.194 23.222-24.37C55.184 24.77 49.28 11.635 40.845 6" style="display:inline;fill:#fc0;fill-opacity:1;fill-rule:nonzero;stroke:#fd5;stroke-width:0;stroke-dasharray:none;stroke-opacity:1"/><path d="M29.544 19.007c-3.377 4.87-8.528 7.245-11.506 5.304-2.978-1.94-2.654-7.461.723-12.331 3.377-4.87 8.528-7.244 11.506-5.303 2.978 1.94 2.654 7.46-.723 12.33" style="display:inline;fill:#fea;fill-opacity:1;fill-rule:nonzero;stroke:none;stroke-width:0;stroke-dasharray:none"/><g style="display:inline"><path d="M20.501 35c-1.87 0-3.63-.727-4.952-2.05A6.948 6.948 0 0 1 13.5 28c0-3.86 3.14-7 7-7s7 3.141 7 7.002a6.954 6.954 0 0 1-2.05 4.949A6.952 6.952 0 0 1 20.5 35" style="display:inline;fill:#fff;fill-opacity:1;fill-rule:nonzero;stroke:none;stroke-width:0;stroke-dasharray:none"/><path d="M-4.478 14.437c.213.24-.218.405-.399.354-.488-.14-.53-.78-.308-1.152.396-.666 1.324-.692 1.904-.264.85.628.858 1.878.219 2.657-.852 1.038-2.435 1.027-3.41.174-1.228-1.074-1.197-2.992-.129-4.163 1.294-1.418 3.55-1.367 4.915-.083 1.61 1.512 1.538 4.108.039 5.668a4.266 4.266 0 0 1-.161.159" style="display:inline;fill:none;fill-rule:evenodd;stroke:#000;stroke-width:1.35535;stroke-dasharray:none" transform="matrix(1.48678 0 0 1.46458 27.171 6.49)"/></g><g style="display:inline"><path d="M20.502 35c-3.861 0-7.002-3.14-7.002-7 .002-3.86 3.143-7 7-7 3.86 0 7 3.141 7 7 0 1.87-.728 3.628-2.05 4.95A6.95 6.95 0 0 1 20.502 35" style="display:inline;fill:#fff;fill-opacity:1;fill-rule:nonzero;stroke:none;stroke-width:0;stroke-dasharray:none" transform="translate(23)"/><path d="M-4.478 14.437c.213.24-.218.405-.399.354-.488-.14-.53-.78-.308-1.152.396-.666 1.324-.692 1.904-.264.85.628.858 1.878.219 2.657-.852 1.038-2.435 1.027-3.41.174-1.228-1.074-1.197-2.992-.129-4.163 1.294-1.418 3.55-1.367 4.915-.083 1.61 1.512 1.538 4.108.039 5.668-.121.126-.25.245-.387.355" style="fill:none;fill-rule:evenodd;stroke:#000;stroke-width:1.35535;stroke-dasharray:none" transform="matrix(1.48678 0 0 1.46458 50.171 6.412)"/></g><path d="M21 51c0-6.075 4.925-9 11-9s11 2.925 11 9-4.925 1-11 1-11 5.075-11-1z" style="display:inline;fill:#262626;fill-opacity:1;stroke:#262626;stroke-width:2;stroke-dasharray:none;stroke-opacity:1"/><path d="M32 51.507c1.798 0 3.494.445 4.993.913A4.996 4.996 0 0 0 32 47.493a4.996 4.996 0 0 0-4.993 4.927c1.499-.469 3.195-.913 4.993-.913z" style="display:inline;fill:red;fill-opacity:1;stroke:none;stroke-width:0;stroke-dasharray:none"/></svg>