<svg xmlns="http://www.w3.org/2000/svg" viewBox="0 0 64 64"><!-- created by Mazeltof (https://www.mazeland.fr/) --><path d="M49.993 12.734C45.122 5.197 38.793 1.03 32.17 1.001L32.099 1C25.501 1 19.16 5.109 14.235 12.575 9.678 19.486 7.04 28.249 7 36.616c-.038 8.137 2.46 14.921 7.226 19.619 4.394 4.331 10.662 6.733 17.65 6.764l.137.001c6.932 0 13.17-2.344 17.575-6.607 4.81-4.655 7.373-11.417 7.412-19.554.039-8.367-2.515-17.153-7.007-24.105" style="display:inline;fill:#262626;fill-opacity:1;fill-rule:nonzero;stroke:none;stroke-width:0;stroke-dasharray:none"/><path d="M55 36.737C54.924 52.841 44.587 61.057 31.884 61 19.182 60.943 8.924 52.635 9 36.53c.076-16.103 10.457-33.588 23.16-33.53C44.86 3.056 55.075 20.633 55 36.736" style="display:inline;fill:#fd5;fill-opacity:1;fill-rule:nonzero;stroke:none;stroke-width:0;stroke-dasharray:none"/><path d="M40.845 6c5.133 6.02 8.438 15.254 8.397 24.009-.07 14.642-9.47 22.11-21.02 22.06C19.549 52.028 12.129 47.76 9 39.437c.982 14.474 10.844 21.934 22.904 21.988 12.762.058 23.145-8.194 23.222-24.37C55.184 24.77 49.28 11.635 40.845 6" style="display:inline;fill:#fc0;fill-opacity:1;fill-rule:nonzero;stroke:none;stroke-width:0;stroke-dasharray:none"/><path d="M29.544 19.007c-3.377 4.87-8.528 7.245-11.506 5.304-2.978-1.94-2.654-7.461.723-12.331 3.377-4.87 8.528-7.244 11.506-5.303 2.978 1.94 2.654 7.46-.723 12.33" style="display:inline;fill:#fea;fill-opacity:1;fill-rule:nonzero;stroke:none;stroke-width:0;stroke-dasharray:none"/><g style="display:inline"><path d="M46.959 25.688c-3.45-1.925-7.463-1.865-10.946.165-.48.294-1.41-1.81-.826-2.163 4.019-2.342 8.65-2.414 12.633-.191.58.334-.384 2.465-.86 2.19" style="fill:#262626;fill-opacity:1;stroke-width:1.20637" transform="translate(0 1.119)"/><path d="M27.993 25.799c-3.49-1.99-7.502-1.97-10.945.055-.475.293-1.448-1.852-.87-2.204 3.973-2.335 8.605-2.36 12.633-.064.586.344-.334 2.497-.817 2.213" style="display:inline;fill:#262626;fill-opacity:1;stroke-width:1.21523" transform="translate(0 1.119)"/></g><path d="M47 42.999c0 8.11-6.716 12.014-15 12.014-8.284 0-15-3.905-15-12.014 0-8.11 6.716-1.335 15-1.335 8.284 0 15-6.775 15 1.335z" style="display:inline;fill:#fff;stroke:#262626;stroke-width:2;stroke-dasharray:none;stroke-opacity:1"/></svg>