<svg xmlns="http://www.w3.org/2000/svg" viewBox="0 0 64 64"><!-- created by Mazeltof (https://www.mazeland.fr/) --><path d="M49.993 12.734C45.122 5.197 38.793 1.03 32.17 1.001L32.099 1C25.501 1 19.16 5.109 14.235 12.575 9.678 19.486 7.04 28.249 7 36.616c-.038 8.137 2.46 14.921 7.226 19.619 4.394 4.331 10.662 6.733 17.65 6.764l.137.001c6.932 0 13.17-2.344 17.575-6.607 4.81-4.655 7.373-11.417 7.412-19.554.039-8.367-2.515-17.153-7.007-24.105" style="display:inline;fill:#262626;fill-opacity:1;fill-rule:nonzero;stroke:none;stroke-width:0;stroke-dasharray:none"/><path d="M55 36.737C54.924 52.841 44.587 61.057 31.884 61 19.182 60.943 8.924 52.635 9 36.53c.076-16.103 10.457-33.588 23.16-33.53C44.86 3.056 55.075 20.633 55 36.736" style="display:inline;fill:#fd5;fill-opacity:1;fill-rule:nonzero;stroke:none;stroke-width:0;stroke-dasharray:none"/><path d="M40.845 6c5.133 6.02 8.438 15.254 8.397 24.009-.07 14.642-9.47 22.11-21.02 22.06C19.549 52.028 12.129 47.76 9 39.437c.982 14.474 10.844 21.934 22.904 21.988 12.762.058 23.145-8.194 23.222-24.37C55.184 24.77 49.28 11.635 40.845 6" style="display:inline;fill:#fc0;fill-opacity:1;fill-rule:nonzero;stroke:none;stroke-width:0;stroke-dasharray:none"/><path d="M29.544 19.007c-3.377 4.87-8.528 7.245-11.506 5.304-2.978-1.94-2.654-7.461.723-12.331 3.377-4.87 8.528-7.244 11.506-5.303 2.978 1.94 2.654 7.46-.723 12.33" style="display:inline;fill:#fea;fill-opacity:1;fill-rule:nonzero;stroke:none;stroke-width:0;stroke-dasharray:none"/><path d="M47 33c0 .654-.265 1.29-.754 1.752L32.978 47.288a2.799 2.799 0 0 1-1.855.712c-.692 0-1.344-.27-1.833-.712l-1.53-1.445a2.429 2.429 0 0 1-.774-1.752c0-.654.286-1.29.775-1.752l5.971-5.642H19.384c-1.467 0-2.384-1.156-2.384-2.465v-2.464c0-1.31.917-2.465 2.384-2.465h14.348l-5.971-5.661a2.353 2.353 0 0 1-.775-1.733c0-.654.286-1.29.775-1.733l1.529-1.444A2.67 2.67 0 0 1 31.123 18c.693 0 1.366.27 1.855.732l13.268 12.535c.49.443.754 1.079.754 1.733Z" style="display:inline;fill:#262626;fill-opacity:1;stroke:none;stroke-width:0;stroke-dasharray:none"/></svg>