<svg xmlns="http://www.w3.org/2000/svg" viewBox="0 0 64 64"><!-- created by Mazeltof (https://www.mazeland.fr/) --><path d="M49.993 12.734C45.122 5.197 38.793 1.03 32.17 1.001L32.099 1C25.501 1 19.16 5.109 14.235 12.575 9.678 19.486 7.04 28.249 7 36.616c-.038 8.137 2.46 14.921 7.226 19.619 4.394 4.331 10.662 6.733 17.65 6.764l.137.001c6.932 0 13.17-2.344 17.575-6.607 4.81-4.655 7.373-11.417 7.412-19.554.039-8.367-2.515-17.153-7.007-24.105" style="display:inline;fill:#262626;fill-opacity:1;fill-rule:nonzero;stroke:none;stroke-width:0;stroke-dasharray:none"/><path d="M55 36.737C54.924 52.841 44.587 61.057 31.884 61 19.182 60.943 8.924 52.635 9 36.53 9.076 20.427 19.457 2.942 32.16 3c12.7.056 22.915 17.633 22.84 33.736" style="display:inline;fill:#fd5;fill-opacity:1;fill-rule:nonzero;stroke:none;stroke-width:0;stroke-dasharray:none"/><path d="M40.845 6c5.133 6.02 8.438 15.254 8.397 24.009-.07 14.642-9.47 22.11-21.02 22.06C19.549 52.028 12.129 47.76 9 39.437c.982 14.474 10.844 21.934 22.904 21.988 12.762.058 23.145-8.194 23.222-24.37C55.184 24.77 49.28 11.635 40.845 6" style="display:inline;fill:#fc0;fill-opacity:1;fill-rule:nonzero;stroke:none;stroke-width:0;stroke-dasharray:none"/><path d="M29.544 19.007c-3.377 4.87-8.528 7.245-11.506 5.304-2.978-1.94-2.654-7.461.723-12.331 3.377-4.87 8.528-7.244 11.506-5.303 2.978 1.94 2.654 7.46-.723 12.33" style="display:inline;fill:#fea;fill-opacity:1;fill-rule:nonzero;stroke:none;stroke-width:0;stroke-dasharray:none"/><g style="display:inline"><path d="M26.965 16.335c-3.34-.814-6.714.144-9.204 2.613-.34.352-1.593-1.18-1.177-1.605 2.873-2.849 6.767-3.955 10.622-3.016.564.146.224 2.129-.24 2.008" style="fill:#262626;fill-opacity:1;stroke-width:1.0443"/><path d="M46.222 18.95c-2.47-2.498-5.842-3.383-9.2-2.414-.465.146-.786-1.92-.22-2.093 3.873-1.117 7.765-.097 10.616 2.785.413.429-.856 2.076-1.195 1.723" style="display:inline;fill:#262626;fill-opacity:1;stroke-width:1.06955"/></g><g style="display:inline"><path d="M43.501 33a5.963 5.963 0 0 1-4.244-1.757A5.956 5.956 0 0 1 37.5 27a6.006 6.006 0 0 1 6-5.999c3.308 0 6 2.693 6 6.001a5.96 5.96 0 0 1-1.757 4.242A5.959 5.959 0 0 1 43.5 33" style="fill:#fff;fill-opacity:1;fill-rule:nonzero;stroke:none;stroke-width:0;stroke-dasharray:none"/><path d="M47.5 27a4 4 0 1 0-8 0 4 4 0 0 0 8 0" style="fill:#262626;fill-opacity:1;fill-rule:nonzero;stroke:none;stroke-width:0;stroke-dasharray:none"/><path d="M44.596 24.477a1.095 1.095 0 1 0-2.19 0 1.095 1.095 0 0 0 2.19 0" style="fill:#fff;fill-opacity:1;fill-rule:nonzero;stroke:none;stroke-width:0;stroke-dasharray:none"/></g><g style="display:inline"><path d="M20.502 33a6.007 6.007 0 0 1-6.002-6 6.009 6.009 0 0 1 6-6c3.309 0 6 2.693 6 6 0 1.603-.624 3.11-1.757 4.243A5.958 5.958 0 0 1 20.502 33" style="display:inline;fill:#fff;fill-opacity:1;fill-rule:nonzero;stroke:none;stroke-width:0;stroke-dasharray:none"/><path d="M24.5 27a4 4 0 1 0-8.001 0 4 4 0 0 0 8.001 0" style="fill:#262626;fill-opacity:1;fill-rule:nonzero;stroke:none;stroke-width:0;stroke-dasharray:none"/><path d="M20.5 25.572a1.095 1.095 0 1 0 0-2.19 1.095 1.095 0 0 0 0 2.19" style="fill:#fff;fill-opacity:1;fill-rule:nonzero;stroke:none;stroke-width:0;stroke-dasharray:none"/></g><path d="M38 49a6 5 0 1 0-12 0 6 5 0 0 0 12 0" style="display:inline;fill:#262626;fill-opacity:1;fill-rule:nonzero;stroke:none;stroke-width:0;stroke-dasharray:none"/><path d="M38 45a6 5 0 1 0-12 0 6 5 0 0 0 12 0" style="display:inline;fill:#262626;fill-opacity:1;fill-rule:nonzero;stroke:none;stroke-width:0;stroke-dasharray:none"/><path d="M36 49a4 3 0 1 0-8 0 4 3 0 0 0 8 0" style="display:inline;fill:red;fill-opacity:1;fill-rule:nonzero;stroke:none;stroke-width:0;stroke-dasharray:none"/><path d="M36 45a4 3 0 1 0-8 0 4 3 0 0 0 8 0" style="display:inline;fill:red;fill-opacity:1;fill-rule:nonzero;stroke:none;stroke-width:0;stroke-dasharray:none"/></svg>