<svg xmlns="http://www.w3.org/2000/svg" viewBox="0 0 64 64"><!-- created by Mazeltof (https://www.mazeland.fr/) --><path d="M49.993 12.734C45.122 5.197 38.793 1.03 32.17 1.001L32.099 1C25.501 1 19.16 5.109 14.235 12.575 9.678 19.486 7.04 28.249 7 36.616c-.038 8.137 2.46 14.921 7.226 19.619 4.394 4.331 10.662 6.733 17.65 6.764l.137.001c6.932 0 13.17-2.344 17.575-6.607 4.81-4.655 7.373-11.417 7.412-19.554.039-8.367-2.515-17.153-7.007-24.105" style="display:inline;fill:#262626;fill-opacity:1;fill-rule:nonzero;stroke:none;stroke-width:0;stroke-dasharray:none"/><path d="M55 36.737C54.924 52.841 44.587 61.057 31.884 61 19.182 60.943 8.924 52.635 9 36.53 9.076 20.427 19.457 2.942 32.16 3c12.7.056 22.915 17.633 22.84 33.736" style="display:inline;fill:#fd5;fill-opacity:1;fill-rule:nonzero;stroke:none;stroke-width:0;stroke-dasharray:none"/><path d="M40.845 6c5.133 6.02 8.438 15.254 8.397 24.009-.07 14.642-9.47 22.11-21.02 22.06C19.549 52.028 12.129 47.76 9 39.437c.982 14.474 10.844 21.934 22.904 21.988 12.762.058 23.145-8.194 23.222-24.37C55.184 24.77 49.28 11.635 40.845 6" style="display:inline;fill:#fc0;fill-opacity:1;fill-rule:nonzero;stroke:none;stroke-width:0;stroke-dasharray:none"/><path d="M29.544 19.007c-3.377 4.87-8.528 7.245-11.506 5.304-2.978-1.94-2.654-7.461.723-12.331 3.377-4.87 8.528-7.244 11.506-5.303 2.978 1.94 2.654 7.46-.723 12.33" style="display:inline;fill:#fea;fill-opacity:1;fill-rule:nonzero;stroke:none;stroke-width:0;stroke-dasharray:none"/><g style="display:inline"><path d="M26.839 17.626c-3.016-1.651-6.523-1.599-9.567.141-.42.252-1.233-1.552-.722-1.855 3.513-2.008 7.56-2.068 11.041-.164.507.287-.335 2.115-.752 1.878" style="display:inline;fill:#262626;fill-opacity:1;stroke-width:1.0443"/><path d="M46.712 17.774c-3.032-1.774-6.518-1.756-9.511.05-.411.26-1.256-1.652-.754-1.966 3.452-2.08 7.475-2.103 10.975-.057.51.307-.29 2.227-.709 1.973" style="display:inline;fill:#262626;fill-opacity:1;stroke-width:1.06955"/></g><g style="display:inline"><path d="M43.501 34a6.957 6.957 0 0 1-4.951-2.05A6.949 6.95 0 0 1 36.5 27c0-3.86 3.14-7 7-7s7 3.142 7 7.002a6.953 6.954 0 0 1-2.05 4.95A6.952 6.953 0 0 1 43.5 34" style="fill:#fff;fill-opacity:1;fill-rule:nonzero;stroke:none;stroke-width:0;stroke-dasharray:none"/><path d="M47.5 27a4 4 0 1 0-8 0 4 4 0 0 0 8 0" style="fill:#262626;fill-opacity:1;fill-rule:nonzero;stroke:none;stroke-width:0;stroke-dasharray:none"/><path d="M44.596 24.477a1.095 1.095 0 1 0-2.19 0 1.095 1.095 0 0 0 2.19 0" style="fill:#fff;fill-opacity:1;fill-rule:nonzero;stroke:none;stroke-width:0;stroke-dasharray:none"/></g><g style="display:inline"><path d="M20.502 34a7.008 7.008 0 0 1-7.002-7 7.01 7.01 0 0 1 7-7c3.86 0 7 3.142 7 7 0 1.87-.728 3.628-2.05 4.95A6.951 6.951 0 0 1 20.502 34" style="display:inline;fill:#fff;fill-opacity:1;fill-rule:nonzero;stroke:none;stroke-width:0;stroke-dasharray:none"/><path d="M24.5 27a4 4 0 1 0-8.001 0 4 4 0 0 0 8.001 0" style="fill:#262626;fill-opacity:1;fill-rule:nonzero;stroke:none;stroke-width:0;stroke-dasharray:none"/><path d="M20.5 25.572a1.095 1.095 0 1 0 0-2.19 1.095 1.095 0 0 0 0 2.19" style="fill:#fff;fill-opacity:1;fill-rule:nonzero;stroke:none;stroke-width:0;stroke-dasharray:none"/></g><path d="M45.557 46.236c0 3.276-5.82 8.77-13 8.77s-13-5.493-13-8.77c0-3.278 5.82 1.032 13 1.032s13-4.31 13-1.032z" style="display:inline;fill:#fff;stroke:red;stroke-width:4;stroke-dasharray:none;stroke-opacity:1"/><path d="M38 37a6 6 0 1 0-12 0 6 6 0 0 0 12 0" style="display:inline;fill:red;fill-opacity:1;fill-rule:nonzero;stroke:none;stroke-width:0;stroke-dasharray:none"/><path d="M30.095 34.19a1.095 1.095 0 1 0 0-2.19 1.095 1.095 0 0 0 0 2.19" style="display:inline;fill:#ffd5d5;fill-opacity:1;fill-rule:nonzero;stroke:none;stroke-width:0;stroke-dasharray:none"/></svg>