<svg xmlns="http://www.w3.org/2000/svg" viewBox="0 0 64 64"><!-- created by Mazeltof (https://www.mazeland.fr/) --><path d="m13.097 56.707-1.39 1.054a2.332 2.332 0 0 1-1.379.456c-1.217 0-2.206-.936-2.21-2.083l-.08-21.366c-.053-14.16 10.759-32.73 23.922-32.73S56.07 19.785 55.962 34.54l-.16 21.593c-.009 1.147-.994 2.083-2.21 2.083-.497 0-.982-.164-1.379-.456l-1.39-1.054c-1.665-1.252-4.074-1.053-5.477.457L41.56 61.26a2.254 2.254 0 0 1-1.652.702 2.27 2.27 0 0 1-1.651-.702l-3.304-3.57c-1.577-1.708-4.395-1.708-5.985 0l-3.303 3.57a2.254 2.254 0 0 1-1.652.702 2.272 2.272 0 0 1-1.651-.702l-3.788-4.096c-1.403-1.51-3.812-1.709-5.476-.457zm14.89-32.198c0-4.993-7.948-4.993-7.948 0 0 4.994 7.947 4.994 7.947 0zm11.92 3.746c5.3.002 5.3-7.489 0-7.49-5.3-.003-5.3 7.488 0 7.49z" style="fill:#fc0;fill-opacity:1;stroke:#262626;stroke-width:2;stroke-dasharray:none;stroke-opacity:1"/><path d="m13.762 50.558-1.276.914c-.365.254-.81.396-1.265.396-1.117 0-2.025-.812-2.03-1.808l-.073-17.845c.275-8.374 9.876-29.041 21.957-29.097 15.94-.073 21.898 18.874 22.029 28.205l-.147 18.737c-.008.996-.912 1.808-2.029 1.808-.455 0-.9-.142-1.265-.396l-1.276-.914c-1.527-1.087-3.738-.914-5.026.396l-3.476 3.555c-.377.386-.935.61-1.516.61a2.148 2.148 0 0 1-1.516-.61L33.82 51.41c-1.447-1.483-4.034-1.483-5.493 0l-3.032 3.098c-.376.386-.934.61-1.516.61a2.148 2.148 0 0 1-1.516-.61l-3.476-3.555c-1.288-1.31-3.499-1.483-5.026-.396zm13.665-27.94c0-4.333-7.294-4.333-7.294 0 0 4.334 7.294 4.334 7.294 0zm10.942 3.25c4.864.002 4.864-6.498 0-6.5-4.865-.002-4.865 6.498 0 6.5z" style="display:inline;fill:#fd5;fill-opacity:1;stroke:none;stroke-width:0;stroke-dasharray:none;stroke-opacity:1"/><path d="M17 16h30v15H17z" style="display:inline;fill:#fd5;fill-opacity:1;fill-rule:evenodd;stroke:none;stroke-width:0;stroke-dasharray:none;stroke-opacity:1;paint-order:stroke fill markers"/><path d="M29.544 19.007c-3.377 4.87-8.528 7.245-11.506 5.304-2.978-1.94-2.654-7.461.723-12.331 3.377-4.87 8.528-7.244 11.506-5.303 2.978 1.94 2.654 7.46-.723 12.33" style="display:inline;fill:#fea;fill-opacity:1;fill-rule:nonzero;stroke:none;stroke-width:0;stroke-dasharray:none"/><g style="display:inline"><path d="M43.501 33a5.963 5.963 0 0 1-4.244-1.757A5.956 5.956 0 0 1 37.5 27a6.006 6.006 0 0 1 6-5.999c3.308 0 6 2.693 6 6.001a5.96 5.96 0 0 1-1.757 4.242A5.959 5.959 0 0 1 43.5 33" style="fill:#fff;fill-opacity:1;fill-rule:nonzero;stroke:none;stroke-width:0;stroke-dasharray:none" transform="translate(-1)"/><path d="M47.5 27a4 4 0 1 0-8 0 4 4 0 0 0 8 0" style="fill:#262626;fill-opacity:1;fill-rule:nonzero;stroke:none;stroke-width:0;stroke-dasharray:none" transform="translate(-1)"/><path d="M44.596 24.477a1.095 1.095 0 1 0-2.19 0 1.095 1.095 0 0 0 2.19 0" style="fill:#fff;fill-opacity:1;fill-rule:nonzero;stroke:none;stroke-width:0;stroke-dasharray:none" transform="translate(-1)"/></g><g style="display:inline"><path d="M20.502 33a6.007 6.007 0 0 1-6.002-6 6.009 6.009 0 0 1 6-6c3.309 0 6 2.693 6 6 0 1.603-.624 3.11-1.757 4.243A5.958 5.958 0 0 1 20.502 33" style="display:inline;fill:#fff;fill-opacity:1;fill-rule:nonzero;stroke:none;stroke-width:0;stroke-dasharray:none" transform="matrix(1.5 0 0 1.5 -7.25 -13.5)"/><path d="M24.5 27a4 4 0 1 0-8.001 0 4 4 0 0 0 8.001 0" style="fill:#262626;fill-opacity:1;fill-rule:nonzero;stroke:none;stroke-width:0;stroke-dasharray:none" transform="matrix(1.5 0 0 1.5 -7.25 -13.5)"/><path d="M20.5 25.572a1.095 1.095 0 1 0 0-2.19 1.095 1.095 0 0 0 0 2.19" style="fill:#fff;fill-opacity:1;fill-rule:nonzero;stroke:none;stroke-width:0;stroke-dasharray:none" transform="matrix(1.5 0 0 1.5 -7.25 -13.5)"/></g><path d="M38.345 48h-12.69c-.873 0-.873-3 0-3h12.69c.873 0 .873 3 0 3" style="display:inline;fill:#262626;fill-opacity:1;stroke:none;stroke-width:0;stroke-dasharray:none;stroke-opacity:1"/></svg>