<svg xmlns="http://www.w3.org/2000/svg" viewBox="0 0 64 64"><!-- created by Mazeltof (https://www.mazeland.fr/) --><path d="M49.993 12.734C45.122 5.197 38.793 1.03 32.17 1.001L32.099 1C25.501 1 19.16 5.109 14.235 12.575 9.678 19.486 7.04 28.249 7 36.616c-.038 8.137 2.46 14.921 7.226 19.619 4.394 4.331 10.662 6.733 17.65 6.764l.137.001c6.932 0 13.17-2.344 17.575-6.607 4.81-4.655 7.373-11.417 7.412-19.554.039-8.367-2.515-17.153-7.007-24.105" style="display:inline;fill:#262626;fill-opacity:1;fill-rule:nonzero;stroke:none;stroke-width:0;stroke-dasharray:none"/><path d="M55 36.737C54.924 52.841 44.587 61.057 31.884 61 19.182 60.943 8.924 52.635 9 36.53 9.076 20.427 19.457 2.942 32.16 3c12.7.056 22.915 17.633 22.84 33.736" style="display:inline;fill:#fd5;fill-opacity:1;fill-rule:nonzero;stroke:none;stroke-width:0;stroke-dasharray:none"/><path d="M40.845 6c5.133 6.02 8.438 15.254 8.397 24.009-.07 14.642-9.47 22.11-21.02 22.06C19.549 52.028 12.129 47.76 9 39.437c.982 14.474 10.844 21.934 22.904 21.988 12.762.058 23.145-8.194 23.222-24.37C55.184 24.77 49.28 11.635 40.845 6" style="display:inline;fill:#fc0;fill-opacity:1;fill-rule:nonzero;stroke:none;stroke-width:0;stroke-dasharray:none"/><path d="M29.544 19.007c-3.377 4.87-8.528 7.245-11.506 5.304-2.978-1.94-2.654-7.461.723-12.331 3.377-4.87 8.528-7.244 11.506-5.303 2.978 1.94 2.654 7.46-.723 12.33" style="display:inline;fill:#fea;fill-opacity:1;fill-rule:nonzero;stroke:none;stroke-width:0;stroke-dasharray:none"/><path d="M24.475 45.427c4.74 2.299 10.295 2.155 15.155-.39.67-.37 1.919 2.193 1.102 2.634-5.608 2.938-12.02 3.105-17.49.452-.797-.399.577-3.026 1.231-2.697" style="display:inline;fill:#262626;fill-opacity:1;stroke-width:1.57059"/><path d="M19.601 20.586s5.507-5.02 10.714-4.409c2.57.301-7.993 8.473-7.993 8.473s10.961-9.2 13.229-6.313c2.058 2.625-10.074 10.98-10.074 10.98s11.237-9.013 10.892-5.094c-.383 4.32-8.892 14.38-14.089 15.405-7.495 1.48-13.306-3.251-9.383-19.571 1.964-8.177 5.074 2.02 6.704.529" style="fill:#fd5;fill-opacity:1;stroke:#262626;stroke-width:2.24664;stroke-dasharray:none;stroke-opacity:1"/><path d="M44.897 20.587s-5.507-5.02-10.712-4.41c-2.57.301 7.992 8.476 7.992 8.476s-10.96-9.204-13.228-6.315C26.89 20.964 39.022 29.32 39.022 29.32s-11.236-9.014-10.89-5.093c.383 4.32 8.89 14.384 14.087 15.408 7.494 1.48 13.305-3.252 9.382-19.576-1.963-8.18-4.746 2.32-6.703.529" style="fill:#fd5;fill-opacity:1;stroke:#262626;stroke-width:2.24682;stroke-dasharray:none;stroke-opacity:1"/></svg>