<svg xmlns="http://www.w3.org/2000/svg" xmlns:xlink="http://www.w3.org/1999/xlink" viewBox="0 0 64 64"><!-- created by Mazeltof (https://www.mazeland.fr/) --><defs><linearGradient id="d"><stop offset="0" style="stop-color:#fff;stop-opacity:1"/><stop offset=".503" style="stop-color:#fff;stop-opacity:1"/><stop offset=".512" style="stop-color:#65b1ef;stop-opacity:1"/><stop offset="1" style="stop-color:#65b1ef;stop-opacity:1"/></linearGradient><linearGradient xlink:href="#d" id="e" x1="44.082" x2="44.082" y1="21.076" y2="34.663" gradientUnits="userSpaceOnUse"/><linearGradient xlink:href="#d" id="f" x1="44.082" x2="44.082" y1="21.076" y2="34.663" gradientUnits="userSpaceOnUse"/></defs><path d="M49.993 12.734C45.122 5.197 38.793 1.03 32.17 1.001L32.099 1C25.501 1 19.16 5.109 14.235 12.575 9.678 19.486 7.04 28.249 7 36.616c-.038 8.137 2.46 14.921 7.226 19.619 4.394 4.331 10.662 6.733 17.65 6.764l.137.001c6.932 0 13.17-2.344 17.575-6.607 4.81-4.655 7.373-11.417 7.412-19.554.039-8.367-2.515-17.153-7.007-24.105" style="display:inline;fill:#262626;fill-opacity:1;fill-rule:nonzero;stroke:none;stroke-width:0;stroke-dasharray:none"/><path d="M55 36.737C54.924 52.841 44.587 61.057 31.884 61 19.182 60.943 8.924 52.635 9 36.53c.076-16.103 10.457-33.588 23.16-33.53C44.86 3.056 55.075 20.633 55 36.736" style="display:inline;fill:#fd5;fill-opacity:1;fill-rule:nonzero;stroke:none;stroke-width:0;stroke-dasharray:none"/><path d="M40.845 6c5.133 6.02 8.438 15.254 8.397 24.009-.07 14.642-9.47 22.11-21.02 22.06C19.549 52.028 12.129 47.76 9 39.437c.982 14.474 10.844 21.934 22.904 21.988 12.762.058 23.145-8.194 23.222-24.37C55.184 24.77 49.28 11.635 40.845 6" style="display:inline;fill:#fc0;fill-opacity:1;fill-rule:nonzero;stroke:none;stroke-width:0;stroke-dasharray:none"/><path d="M29.544 19.007c-3.377 4.87-8.528 7.245-11.506 5.304-2.978-1.94-2.654-7.461.723-12.331 3.377-4.87 8.528-7.244 11.506-5.303 2.978 1.94 2.654 7.46-.723 12.33" style="display:inline;fill:#fea;fill-opacity:1;fill-rule:nonzero;stroke:none;stroke-width:0;stroke-dasharray:none"/><g style="display:inline"><path d="M43.501 36c-1.87 0-3.63-.78-4.952-2.196-1.322-1.417-2.05-3.302-2.049-5.305 0-4.135 3.14-7.499 7-7.499s7 3.366 7 7.502c0 2.002-.728 3.886-2.05 5.302C47.128 35.221 45.37 36 43.5 36" style="fill:url(#e);fill-opacity:1;fill-rule:nonzero;stroke:none;stroke-width:0;stroke-dasharray:none"/><path d="M48.5 28a5 5 0 1 0-10 0 5 5 0 0 0 10 0" style="fill:#262626;fill-opacity:1;fill-rule:nonzero;stroke:none;stroke-width:0;stroke-dasharray:none"/><path d="M44.596 25.477a1.095 1.095 0 1 0-2.19 0 1.095 1.095 0 0 0 2.19 0" style="fill:#fff;fill-opacity:1;fill-rule:nonzero;stroke:none;stroke-width:0;stroke-dasharray:none"/></g><g style="display:inline"><path d="M20.501 36c-1.87 0-3.63-.78-4.952-2.196-1.322-1.417-2.05-3.302-2.049-5.305 0-4.135 3.14-7.499 7-7.499s7 3.366 7 7.502c0 2.002-.728 3.886-2.05 5.302C24.128 35.221 22.37 36 20.5 36" style="display:inline;fill:url(#f);fill-opacity:1;fill-rule:nonzero;stroke:none;stroke-width:0;stroke-dasharray:none"/><path d="M25.5 28a5 5 0 1 0-10.001 0A5 5 0 0 0 25.5 28" style="fill:#262626;fill-opacity:1;fill-rule:nonzero;stroke:none;stroke-width:0;stroke-dasharray:none"/><path d="M20.5 26.572a1.095 1.095 0 1 0 0-2.19 1.095 1.095 0 0 0 0 2.19" style="fill:#fff;fill-opacity:1;fill-rule:nonzero;stroke:none;stroke-width:0;stroke-dasharray:none"/></g><path d="M39.525 49.573c-4.74-2.299-10.295-2.155-15.155.39-.67.37-1.919-2.193-1.102-2.634 5.608-2.938 12.02-3.105 17.49-.452.797.399-.577 3.026-1.231 2.697" style="display:inline;fill:#262626;fill-opacity:1;stroke-width:1.57059"/></svg>