<svg xmlns="http://www.w3.org/2000/svg" viewBox="0 0 64 64"><!-- created by Mazeltof (https://www.mazeland.fr/) --><path d="M49.993 12.734C45.122 5.197 38.793 1.03 32.17 1.001L32.099 1C25.501 1 19.16 5.109 14.235 12.575 9.678 19.486 7.04 28.249 7 36.616c-.038 8.137 2.46 14.921 7.226 19.619 4.394 4.331 10.662 6.733 17.65 6.764l.137.001c6.932 0 13.17-2.344 17.575-6.607 4.81-4.655 7.373-11.417 7.412-19.554.039-8.367-2.515-17.153-7.007-24.105" style="display:inline;fill:#262626;fill-opacity:1;fill-rule:nonzero;stroke:none;stroke-width:0;stroke-dasharray:none"/><path d="M55 36.737C54.924 52.841 44.587 61.057 31.884 61 19.182 60.943 8.924 52.635 9 36.53c.076-16.103 10.457-33.588 23.16-33.53C44.86 3.056 55.075 20.633 55 36.736" style="display:inline;fill:#fd5;fill-opacity:1;fill-rule:nonzero;stroke:none;stroke-width:0;stroke-dasharray:none"/><path d="M40.845 6c5.133 6.02 8.438 15.254 8.397 24.009-.07 14.642-9.47 22.11-21.02 22.06C19.549 52.028 12.129 47.76 9 39.437c.982 14.474 10.844 21.934 22.904 21.988 12.762.058 23.145-8.194 23.222-24.37C55.184 24.77 49.28 11.635 40.845 6" style="display:inline;fill:#fc0;fill-opacity:1;fill-rule:nonzero;stroke:none;stroke-width:0;stroke-dasharray:none"/><path d="M29.544 19.007c-3.377 4.87-8.528 7.245-11.506 5.304-2.978-1.94-2.654-7.461.723-12.331 3.377-4.87 8.528-7.244 11.506-5.303 2.978 1.94 2.654 7.46-.723 12.33" style="display:inline;fill:#fea;fill-opacity:1;fill-rule:nonzero;stroke:none;stroke-width:0;stroke-dasharray:none"/><g style="display:inline"><path d="M34.874 27c-.002-.002-1.212-1.027-3.067-1.027-1.607 0-2.198.752-2.222.783l.028-.04-2.113-1.763c.13-.2 1.351-1.953 4.307-1.953 2.8 0 4.618 1.6 4.693 1.668L34.873 27M12.036 23.477a.518.513 0 0 0-.445-.618l-3.033-.422A.473.468 0 0 0 8 22.91v3.237c0 .303.237.639.526.746l2.06.765a.466.46 0 0 0 .64-.342l.81-3.84M51.964 23.477a.518.513 0 0 1 .445-.618l3.033-.422a.474.47 0 0 1 .558.473v3.237c0 .303-.237.639-.526.746l-2.06.765a.466.46 0 0 1-.64-.342l-.81-3.84" style="display:inline;fill:#262626;fill-opacity:1;fill-rule:nonzero;stroke:none;stroke-width:0;stroke-dasharray:none"/><circle cx="20.5" cy="27.5" r="9.5" style="opacity:1;fill:#262626;fill-opacity:1;fill-rule:evenodd;stroke-width:0;paint-order:stroke fill markers"/><circle cx="43.5" cy="27.5" r="9.5" style="opacity:1;fill:#262626;fill-opacity:1;fill-rule:evenodd;stroke-width:0;paint-order:stroke fill markers"/></g><path d="M24.475 45.427c4.74 2.299 10.295 2.155 15.155-.39.67-.37 1.919 2.193 1.102 2.634-5.608 2.938-12.02 3.105-17.49.452-.797-.399.577-3.026 1.231-2.697" style="display:inline;fill:#262626;fill-opacity:1;stroke-width:1.57059"/><path d="M45.592 24.477a1.095 1.095 0 1 0-2.19 0 1.095 1.095 0 0 0 2.19 0M20.496 25.572a1.095 1.095 0 1 0 0-2.19 1.095 1.095 0 0 0 0 2.19" style="display:inline;fill:#fff;fill-opacity:1;fill-rule:nonzero;stroke:none;stroke-width:0;stroke-dasharray:none"/></svg>