<svg xmlns="http://www.w3.org/2000/svg" viewBox="0 0 64 64"><!-- created by Mazeltof (https://www.mazeland.fr/) --><path d="M49.993 12.734C45.122 5.197 38.793 1.03 32.17 1.001L32.099 1C25.501 1 19.16 5.109 14.235 12.575 9.678 19.486 7.04 28.249 7 36.616c-.038 8.137 2.46 14.921 7.226 19.619 4.394 4.331 10.662 6.733 17.65 6.764l.137.001c6.932 0 13.17-2.344 17.575-6.607 4.81-4.655 7.373-11.417 7.412-19.554.039-8.367-2.515-17.153-7.007-24.105" style="display:inline;fill:#262626;fill-opacity:1;fill-rule:nonzero;stroke:none;stroke-width:0;stroke-dasharray:none"/><path d="M55 36.737C54.924 52.841 44.587 61.057 31.884 61 19.182 60.943 8.924 52.635 9 36.53 9.076 20.427 19.457 2.942 32.16 3c12.7.056 22.915 17.633 22.84 33.736" style="display:inline;fill:#fd5;fill-opacity:1;fill-rule:nonzero;stroke:none;stroke-width:0;stroke-dasharray:none"/><path d="M40.845 6c5.133 6.02 8.438 15.254 8.397 24.009-.07 14.642-9.47 22.11-21.02 22.06C19.549 52.028 12.129 47.76 9 39.437c.982 14.474 10.844 21.934 22.904 21.988 12.762.058 23.145-8.194 23.222-24.37C55.184 24.77 49.28 11.635 40.845 6" style="display:inline;fill:#fc0;fill-opacity:1;fill-rule:nonzero;stroke:none;stroke-width:0;stroke-dasharray:none"/><path d="M29.544 19.007c-3.377 4.87-8.528 7.245-11.506 5.304-2.978-1.94-2.654-7.461.723-12.331 3.377-4.87 8.528-7.244 11.506-5.303 2.978 1.94 2.654 7.46-.723 12.33" style="display:inline;fill:#fea;fill-opacity:1;fill-rule:nonzero;stroke:none;stroke-width:0;stroke-dasharray:none"/><g style="display:inline"><path d="M43 34a.55.55 0 0 1-.393-.164l-5.571-5.487C36.965 28.286 35 26.453 35 24.266 35 21.596 36.598 20 39.268 20c1.562 0 3.027 1.258 3.732 1.969.705-.711 2.17-1.969 3.732-1.969C49.402 20 51 21.595 51 24.266c0 2.187-1.964 4.02-2.045 4.101l-5.562 5.47A.55.55 0 0 1 43 34Z" style="display:inline;fill:red;stroke:none;stroke-width:0;stroke-dasharray:none"/><path d="M48.19 24.477a1.095 1.095 0 1 0-2.19 0 1.095 1.095 0 0 0 2.19 0" style="fill:#fff;fill-opacity:1;fill-rule:nonzero;stroke:none;stroke-width:0;stroke-dasharray:none"/></g><g style="display:inline"><path d="M21 34a.55.55 0 0 1-.393-.164l-5.571-5.487C14.965 28.286 13 26.453 13 24.266 13 21.596 14.598 20 17.268 20c1.562 0 3.027 1.258 3.732 1.969.705-.711 2.17-1.969 3.732-1.969C27.402 20 29 21.595 29 24.266c0 2.187-1.964 4.02-2.045 4.101l-5.562 5.47A.55.55 0 0 1 21 34Z" style="display:inline;fill:red;stroke:none;stroke-width:0;stroke-dasharray:none"/><path d="M25.095 25.572a1.095 1.095 0 1 0 0-2.19 1.095 1.095 0 0 0 0 2.19" style="fill:#fff;fill-opacity:1;fill-rule:nonzero;stroke:none;stroke-width:0;stroke-dasharray:none"/></g><path d="M24.475 45.427c4.74 2.299 10.295 2.155 15.155-.39.67-.37 1.919 2.193 1.102 2.634-5.608 2.938-12.02 3.105-17.49.452-.797-.399.577-3.026 1.231-2.697" style="display:inline;fill:#262626;fill-opacity:1;stroke-width:1.57059"/></svg>