<svg xmlns="http://www.w3.org/2000/svg" viewBox="0 0 64 64"><!-- created by Mazeltof (https://www.mazeland.fr/) --><path d="M49.993 12.734C45.122 5.197 38.793 1.03 32.17 1.001L32.099 1C25.501 1 19.16 5.109 14.235 12.575 9.678 19.486 7.04 28.249 7 36.616c-.038 8.137 2.46 14.921 7.226 19.619 4.394 4.331 10.662 6.733 17.65 6.764l.137.001c6.932 0 13.17-2.344 17.575-6.607 4.81-4.655 7.373-11.417 7.412-19.554.039-8.367-2.515-17.153-7.007-24.105" style="display:inline;fill:#262626;fill-opacity:1;fill-rule:nonzero;stroke:none;stroke-width:0;stroke-dasharray:none"/><path d="M55 36.737C54.924 52.841 44.587 61.057 31.884 61 19.182 60.943 8.924 52.635 9 36.53 9.076 20.427 19.457 2.942 32.16 3c12.7.056 22.915 17.633 22.84 33.736" style="display:inline;fill:#fd5;fill-opacity:1;fill-rule:nonzero;stroke:none;stroke-width:0;stroke-dasharray:none"/><path d="M40.845 6c5.133 6.02 8.438 15.254 8.397 24.009-.07 14.642-9.47 22.11-21.02 22.06C19.549 52.028 12.129 47.76 9 39.437c.982 14.474 10.844 21.934 22.904 21.988 12.762.058 23.145-8.194 23.222-24.37C55.184 24.77 49.28 11.635 40.845 6" style="display:inline;fill:#fc0;fill-opacity:1;fill-rule:nonzero;stroke:none;stroke-width:0;stroke-dasharray:none"/><path d="M29.544 19.007c-3.377 4.87-8.528 7.245-11.506 5.304-2.978-1.94-2.654-7.461.723-12.331 3.377-4.87 8.528-7.244 11.506-5.303 2.978 1.94 2.654 7.46-.723 12.33" style="display:inline;fill:#fea;fill-opacity:1;fill-rule:nonzero;stroke:none;stroke-width:0;stroke-dasharray:none"/><g style="display:inline"><path d="M26.753 22.002c-3.437.078-6.448 1.877-8.214 4.906-.237.428-1.844-.727-1.552-1.246 2.037-3.495 5.513-5.571 9.48-5.662.582-.005.767 1.998.287 2.002" style="fill:#262626;fill-opacity:1;stroke-width:1.0443"/><path d="M45.444 26.906c-1.74-3.053-4.767-4.78-8.262-4.713-.487.02-.262-2.058.33-2.079 4.03-.076 7.525 1.916 9.533 5.438.288.521-1.364 1.783-1.6 1.355" style="display:inline;fill:#262626;fill-opacity:1;stroke-width:1.06955"/></g><ellipse cx="32" cy="44" rx="11" ry="12" style="display:inline;fill:#262626;fill-opacity:1;stroke-width:0;stroke-dasharray:none"/><path d="M31.976 53.333c2.367 0 4.516-1.084 6.135-2.848l-.061-.112c0-3.52-2.72-6.373-6.074-6.373-3.353 0-6.072 2.853-6.072 6.373l-.015.166c1.616 1.73 3.745 2.794 6.087 2.794z" style="display:inline;fill:red;fill-opacity:1;stroke:none;stroke-width:0;stroke-dasharray:none"/></svg>