<svg xmlns="http://www.w3.org/2000/svg" viewBox="0 0 64 64"><!-- created by Mazeltof (https://www.mazeland.fr/) --><path d="M49.993 12.734C45.122 5.197 38.793 1.03 32.17 1.001L32.099 1C25.501 1 19.16 5.109 14.235 12.575 9.678 19.486 7.04 28.249 7 36.616c-.038 8.137 2.46 14.921 7.226 19.619 4.394 4.331 10.662 6.733 17.65 6.764l.137.001c6.932 0 13.17-2.344 17.575-6.607 4.81-4.655 7.373-11.417 7.412-19.554.039-8.367-2.515-17.153-7.007-24.105" style="display:inline;fill:#262626;fill-opacity:1;fill-rule:nonzero;stroke:none;stroke-width:0;stroke-dasharray:none"/><path d="M55 36.737C54.924 52.841 44.587 61.057 31.884 61 19.182 60.943 8.924 52.635 9 36.53c.076-16.103 10.457-33.588 23.16-33.53C44.86 3.056 55.075 20.633 55 36.736" style="display:inline;fill:#fd5;fill-opacity:1;fill-rule:nonzero;stroke:none;stroke-width:0;stroke-dasharray:none"/><path d="M40.845 6c5.133 6.02 8.438 15.254 8.397 24.009-.07 14.642-9.47 22.11-21.02 22.06C19.549 52.028 12.129 47.76 9 39.437c.982 14.474 10.844 21.934 22.904 21.988 12.762.058 23.145-8.194 23.222-24.37C55.184 24.77 49.28 11.635 40.845 6" style="display:inline;fill:#fc0;fill-opacity:1;fill-rule:nonzero;stroke:none;stroke-width:0;stroke-dasharray:none"/><g style="display:inline"><path d="M44.001 35c-1.87 0-3.63-.727-4.952-2.05A6.948 6.948 0 0 1 37 28c0-3.86 3.14-7 7-7s7 3.141 7 7.002a6.954 6.954 0 0 1-2.05 4.949A6.952 6.952 0 0 1 44 35" style="fill:#fff;fill-opacity:1;fill-rule:nonzero;stroke:none;stroke-width:0;stroke-dasharray:none"/><path d="M49 28a5 5 0 1 0-10 0 5 5 0 0 0 10 0" style="fill:#262626;fill-opacity:1;fill-rule:nonzero;stroke:none;stroke-width:0;stroke-dasharray:none"/><path d="M45.192 29.096a1.095 1.095 0 1 0-2.191 0 1.095 1.095 0 0 0 2.19 0" style="fill:#fff;fill-opacity:1;fill-rule:nonzero;stroke:none;stroke-width:0;stroke-dasharray:none"/></g><g style="display:inline"><path d="M20.002 35C16.141 35 13 31.86 13 28c.002-3.86 3.143-7 7-7 3.86 0 7 3.141 7 7 0 1.87-.728 3.628-2.05 4.95A6.95 6.95 0 0 1 20.002 35" style="display:inline;fill:#fff;fill-opacity:1;fill-rule:nonzero;stroke:none;stroke-width:0;stroke-dasharray:none"/><path d="M25 28a5 5 0 1 0-10.001 0A5 5 0 0 0 25 28" style="fill:#262626;fill-opacity:1;fill-rule:nonzero;stroke:none;stroke-width:0;stroke-dasharray:none"/><path d="M20.095 30.191a1.095 1.095 0 1 0 0-2.19 1.095 1.095 0 0 0 0 2.19" style="fill:#fff;fill-opacity:1;fill-rule:nonzero;stroke:none;stroke-width:0;stroke-dasharray:none"/></g><g style="display:inline"><ellipse cx="31.814" cy="15.036" rx="15.489" ry="12.922" style="opacity:1;fill:#fd5;fill-rule:evenodd;stroke:none;stroke-width:0;stroke-dasharray:none;stroke-opacity:1;paint-order:stroke fill markers" transform="matrix(.96843 0 0 1.006 1.19 1.874)"/><path d="M29.544 17.98c-3.377 4.485-8.528 6.672-11.506 4.884-2.978-1.787-2.654-6.871.723-11.356 3.377-4.485 8.528-6.672 11.506-4.885 2.978 1.787 2.654 6.872-.723 11.357" style="display:inline;fill:#fea;fill-opacity:1;fill-rule:nonzero;stroke:none;stroke-width:0;stroke-dasharray:none"/><path d="M35.21 28.745c4.58-1.34 7.97-4.831 9.25-9.527.164-.66 2.734.314 2.528 1.112-1.476 5.417-5.388 9.45-10.674 10.996-.778.216-1.746-2.403-1.105-2.58" style="fill:#262626;fill-opacity:1;stroke-width:1.44935"/><path d="M19.593 19.2c1.212 4.626 4.585 7.964 9.202 9.107.649.145-.38 2.8-1.164 2.617-5.327-1.318-9.222-5.17-10.62-10.51-.195-.785 2.422-1.863 2.582-1.216" style="display:inline;fill:#262626;fill-opacity:1;stroke-width:1.45599"/></g><g fill="#ffdd67" style="display:inline;stroke:none;stroke-width:0;stroke-dasharray:none"><path d="M16.654 10.284C11.064 7.616 7.441 2.14 7.441 2.14c-1.545 14.431 4.344 17.934 7.678 17.999 4.465.092 7.986-6.776 1.535-9.855M47.35 10.284c5.588-2.668 9.213-8.144 9.213-8.144 1.545 14.431-4.346 17.934-7.678 17.999-4.465.092-7.988-6.776-1.535-9.855" style="fill:red;fill-opacity:1;stroke:#262626;stroke-width:2.02626;stroke-dasharray:none;stroke-opacity:1" transform="matrix(.96843 0 0 1.006 1.008 1.733)"/></g><path d="M45.557 44.034c0 3.276-5.82 8.77-13 8.77s-13-5.493-13-8.77c0-3.278 5.82 1.032 13 1.032s13-4.31 13-1.032z" style="display:inline;fill:#fff;stroke:#262626;stroke-width:2;stroke-dasharray:none;stroke-opacity:1"/></svg>