<svg xmlns="http://www.w3.org/2000/svg" viewBox="0 0 64 64"><!-- created by Mazeltof (https://www.mazeland.fr/) --><path d="M49.993 12.734C45.122 5.197 38.793 1.03 32.17 1.001L32.099 1C25.501 1 19.16 5.109 14.235 12.575 9.678 19.486 7.04 28.249 7 36.616c-.038 8.137 2.46 14.921 7.226 19.619 4.394 4.331 10.662 6.733 17.65 6.764l.137.001c6.932 0 13.17-2.344 17.575-6.607 4.81-4.655 7.373-11.417 7.412-19.554.039-8.367-2.515-17.153-7.007-24.105" style="display:inline;fill:#262626;fill-opacity:1;fill-rule:nonzero;stroke:none;stroke-width:0;stroke-dasharray:none"/><path d="M55 36.737C54.924 52.841 44.587 61.057 31.884 61 19.182 60.943 8.924 52.635 9 36.53c.076-16.103 10.457-33.588 23.16-33.53C44.86 3.056 55.075 20.633 55 36.736" style="display:inline;fill:#fd5;fill-opacity:1;fill-rule:nonzero;stroke:none;stroke-width:0;stroke-dasharray:none"/><path d="M40.845 6c5.133 6.02 8.438 15.254 8.397 24.009-.07 14.642-9.47 22.11-21.02 22.06C19.549 52.028 12.129 47.76 9 39.437c.982 14.474 10.844 21.934 22.904 21.988 12.762.058 23.145-8.194 23.222-24.37C55.184 24.77 49.28 11.635 40.845 6" style="display:inline;fill:#fc0;fill-opacity:1;fill-rule:nonzero;stroke:none;stroke-width:0;stroke-dasharray:none"/><path d="M29.544 19.007c-3.377 4.87-8.528 7.245-11.506 5.304-2.978-1.94-2.654-7.461.723-12.331 3.377-4.87 8.528-7.244 11.506-5.303 2.978 1.94 2.654 7.46-.723 12.33" style="display:inline;fill:#fea;fill-opacity:1;fill-rule:nonzero;stroke:none;stroke-width:0;stroke-dasharray:none"/><g style="display:inline"><path d="M26.415 21.908c-1.741-3.062-4.727-4.842-8.146-4.858-.477.009-.284-2.044.295-2.05 3.944.018 7.391 2.072 9.401 5.606.289.522-1.313 1.734-1.55 1.303" style="fill:#262626;fill-opacity:1;stroke-width:1.05267"/><path d="M45.748 17.078c-3.466-.02-6.436 1.75-8.103 4.831-.223.436-1.89-.807-1.614-1.333 1.922-3.553 5.35-5.599 9.35-5.576.587.012.85 2.088.368 2.078" style="display:inline;fill:#262626;fill-opacity:1;stroke-width:1.06612"/></g><g style="display:inline"><path d="M47.24 25.615c-3.83-.967-7.69.13-10.53 2.992-.388.409-1.831-1.384-1.357-1.875 3.275-3.303 7.73-4.57 12.153-3.454.646.172.267 2.48-.264 2.337" style="fill:#262626;fill-opacity:1;stroke-width:1.20637" transform="translate(0 1.119)"/><path d="M27.31 28.49c-2.856-2.825-6.737-3.844-10.587-2.78-.535.16-.919-2.163-.27-2.353 4.443-1.228 8.922-.053 12.22 3.207.477.485-.97 2.326-1.362 1.927" style="display:inline;fill:#262626;fill-opacity:1;stroke-width:1.21523" transform="translate(0 1.119)"/></g><g style="display:inline"><path d="M21 51c0-6.075 4.925-9 11-9s11 2.925 11 9-4.925 1-11 1-11 5.075-11-1z" style="fill:#fff;fill-opacity:1;stroke:#262626;stroke-width:2;stroke-dasharray:none;stroke-opacity:1"/></g></svg>