<svg xmlns="http://www.w3.org/2000/svg" viewBox="0 0 64 64"><!-- created by Mazeltof (https://www.mazeland.fr/) --><path d="M49.993 12.734C45.122 5.197 38.793 1.03 32.17 1.001L32.099 1C25.501 1 19.16 5.109 14.235 12.575 9.678 19.486 7.04 28.249 7 36.616c-.038 8.137 2.46 14.921 7.226 19.619 4.394 4.331 10.662 6.733 17.65 6.764l.137.001c6.932 0 13.17-2.344 17.575-6.607 4.81-4.655 7.373-11.417 7.412-19.554.039-8.367-2.515-17.153-7.007-24.105" style="display:inline;fill:#262626;fill-opacity:1;fill-rule:nonzero;stroke:none;stroke-width:0;stroke-dasharray:none"/><path d="M55 36.737C54.924 52.841 44.587 61.057 31.884 61 19.182 60.943 8.924 52.635 9 36.53 9.076 20.427 19.457 2.942 32.16 3c12.7.056 22.915 17.633 22.84 33.736" style="display:inline;fill:#fd5;fill-opacity:1;fill-rule:nonzero;stroke:none;stroke-width:0;stroke-dasharray:none"/><path d="M40.845 6c5.133 6.02 8.438 15.254 8.397 24.009-.07 14.642-9.47 22.11-21.02 22.06C19.549 52.028 12.129 47.76 9 39.437c.982 14.474 10.844 21.934 22.904 21.988 12.762.058 23.145-8.194 23.222-24.37C55.184 24.77 49.28 11.635 40.845 6" style="display:inline;fill:#fc0;fill-opacity:1;fill-rule:nonzero;stroke:none;stroke-width:0;stroke-dasharray:none"/><path d="M29.544 19.007c-3.377 4.87-8.528 7.245-11.506 5.304-2.978-1.94-2.654-7.461.723-12.331 3.377-4.87 8.528-7.244 11.506-5.303 2.978 1.94 2.654 7.46-.723 12.33" style="display:inline;fill:#fea;fill-opacity:1;fill-rule:nonzero;stroke:none;stroke-width:0;stroke-dasharray:none"/><g style="display:inline"><path d="M43.501 33a5.963 5.963 0 0 1-4.244-1.757A5.956 5.956 0 0 1 37.5 27a6.006 6.006 0 0 1 6-5.999c3.308 0 6 2.693 6 6.001a5.96 5.96 0 0 1-1.757 4.242A5.959 5.959 0 0 1 43.5 33" style="fill:#fff;fill-opacity:1;fill-rule:nonzero;stroke:none;stroke-width:0;stroke-dasharray:none" transform="translate(-.077 -1.501)"/><path d="M43.612 22.637a4 4 0 1 0-2.07 7.728 4 4 0 0 0 2.07-7.728" style="fill:#262626;fill-opacity:1;fill-rule:nonzero;stroke:none;stroke-width:0;stroke-dasharray:none" transform="translate(-.077 -1.501)"/><path d="M40.424 24.79a1.095 1.095 0 1 0-.567 2.115 1.095 1.095 0 0 0 .567-2.116" style="fill:#fff;fill-opacity:1;fill-rule:nonzero;stroke:none;stroke-width:0;stroke-dasharray:none" transform="translate(-.077 -1.501)"/></g><g style="display:inline"><path d="M20.502 33a6.007 6.007 0 0 1-6.002-6 6.009 6.009 0 0 1 6-6c3.309 0 6 2.693 6 6 0 1.603-.624 3.11-1.757 4.243A5.958 5.958 0 0 1 20.502 33" style="display:inline;fill:#fff;fill-opacity:1;fill-rule:nonzero;stroke:none;stroke-width:0;stroke-dasharray:none"/><path d="M24.5 27a4 4 0 1 0-8.001 0 4 4 0 0 0 8.001 0" style="fill:#262626;fill-opacity:1;fill-rule:nonzero;stroke:none;stroke-width:0;stroke-dasharray:none"/><path d="M20.5 25.572a1.095 1.095 0 1 0 0-2.19 1.095 1.095 0 0 0 0 2.19" style="fill:#fff;fill-opacity:1;fill-rule:nonzero;stroke:none;stroke-width:0;stroke-dasharray:none"/></g><g style="display:inline"><path d="M20.502 35.5c-4.412 0-8.002-3.588-8.002-8 .002-4.412 3.592-8 8-8 4.411 0 8 3.59 8 8.001a7.948 7.948 0 0 1-2.343 5.657 7.944 7.944 0 0 1-5.655 2.342" style="fill:#fff;fill-opacity:1;fill-rule:nonzero;stroke:none;stroke-width:0;stroke-dasharray:none"/><path d="M24.5 29.465a4 4 0 1 0-4-6.929 4 4 0 0 0 4 6.929" style="fill:#262626;fill-opacity:1;fill-rule:nonzero;stroke:none;stroke-width:0;stroke-dasharray:none"/><path d="M23.737 25.287a1.095 1.095 0 1 0 1.897-1.095 1.095 1.095 0 0 0-1.897 1.095" style="fill:#fff;fill-opacity:1;fill-rule:nonzero;stroke:none;stroke-width:0;stroke-dasharray:none"/></g><path d="M38.345 48h-12.69c-.873 0-.873-3 0-3h12.69c.873 0 .873 3 0 3" style="display:inline;fill:#262626;fill-opacity:1;stroke:none;stroke-width:0;stroke-dasharray:none;stroke-opacity:1"/><path d="M45.5 44.233c0 3.276-5.82 8.77-13 8.77s-13-5.493-13-8.77c0-3.278 5.82 1.032 13 1.032s13-4.31 13-1.032z" style="display:inline;fill:red;stroke:#262626;stroke-width:2;stroke-dasharray:none;stroke-opacity:1"/><g style="display:inline"><path d="M47 42.999c0 8.11-6.716 12.014-15 12.014-8.284 0-15-3.905-15-12.014 0-8.11 6.716-1.335 15-1.335 8.284 0 15-6.775 15 1.335z" style="display:inline;fill:#262626;fill-opacity:1;stroke:#262626;stroke-width:2;stroke-dasharray:none;stroke-opacity:1" transform="rotate(-15 34.796 42.13)"/><path d="M41 51.67c-.23-2.043-4.16-3.67-8.989-3.67C27.034 48 23 49.727 23 51.857l.006.097C25.543 53.18 28.515 54 31.706 54c3.44 0 6.636-.942 9.294-2.33z" style="fill:#e64c3c;stroke-width:.926386" transform="rotate(-15 34.796 42.13)"/></g></svg>