<svg xmlns="http://www.w3.org/2000/svg" viewBox="0 0 64 64"><!-- created by Mazeltof (https://www.mazeland.fr/) --><path d="M49.993 12.734C45.122 5.197 38.793 1.03 32.17 1.001L32.099 1C25.501 1 19.16 5.109 14.235 12.575 9.678 19.486 7.04 28.249 7 36.616c-.038 8.137 2.46 14.921 7.226 19.619 4.394 4.331 10.662 6.733 17.65 6.764l.137.001c6.932 0 13.17-2.344 17.575-6.607 4.81-4.655 7.373-11.417 7.412-19.554.039-8.367-2.515-17.153-7.007-24.105" style="display:inline;fill:#262626;fill-opacity:1;fill-rule:nonzero;stroke:none;stroke-width:0;stroke-dasharray:none"/><path d="M55 36.737C54.924 52.841 44.587 61.057 31.884 61 19.182 60.943 8.924 52.635 9 36.53 9.076 20.427 19.457 2.942 32.16 3c12.7.056 22.915 17.633 22.84 33.736" style="display:inline;fill:#e9ddaf;fill-opacity:1;fill-rule:nonzero;stroke:none;stroke-width:0;stroke-dasharray:none"/><path d="M40.845 6c5.133 6.02 8.438 15.254 8.397 24.01-.07 14.641-9.47 22.11-21.02 22.06C19.549 52.027 12.129 47.76 9 39.436 9.982 53.91 19.844 61.37 31.904 61.424c12.762.058 23.145-8.194 23.222-24.37C55.184 24.77 49.28 11.635 40.845 6" style="display:inline;fill:#decd87;fill-opacity:1;fill-rule:nonzero;stroke:none;stroke-width:0;stroke-dasharray:none"/><path d="M29.544 19.007c-3.377 4.87-8.528 7.245-11.506 5.304-2.978-1.94-2.654-7.46.723-12.33s8.528-7.245 11.506-5.304c2.978 1.94 2.654 7.46-.723 12.33" style="display:inline;fill:#f4eed7;fill-opacity:1;fill-rule:nonzero;stroke:none;stroke-width:0;stroke-dasharray:none"/><g style="display:inline;stroke-width:0;stroke-dasharray:none"><path d="M43.502 38a8.944 8.945 0 0 1-6.366-2.636A8.934 8.935 0 0 1 34.5 29c0-4.962.215-8.999 5.178-8.999C44.64 20 52.5 24.04 52.5 29.002a8.94 8.94 0 0 1-2.636 6.364A8.938 8.94 0 0 1 43.5 38" style="fill:#decd87;fill-opacity:1;fill-rule:nonzero;stroke:none;stroke-width:0;stroke-dasharray:none" transform="translate(0 -1)"/><path d="M43.501 33a5.963 5.963 0 0 1-4.244-1.757A5.956 5.956 0 0 1 37.5 27c0-3.308.143-5.999 3.452-5.999 3.308 0 8.548 2.693 8.548 6.001a5.96 5.96 0 0 1-1.757 4.242A5.959 5.959 0 0 1 43.5 33" style="display:inline;fill:#c8ab37;fill-opacity:1;fill-rule:nonzero;stroke:none;stroke-width:0;stroke-dasharray:none" transform="matrix(1.16674 0 0 1.16676 -8.253 -4.502)"/><path d="M42.5 32.5a4.97 4.97 0 0 1-3.536-1.464A4.963 4.964 0 0 1 37.5 27.5c0-2.757 2.242-5 5-5 2.757 0 5 2.244 5 5.001a4.967 4.967 0 0 1-1.464 3.536A4.966 4.966 0 0 1 42.5 32.5" style="display:inline;fill:#fff;fill-opacity:1;fill-rule:nonzero;stroke:none;stroke-width:0;stroke-dasharray:none" transform="translate(0 -1)"/><path d="M45.833 27.5a3.333 3.334 0 1 0-6.666 0 3.333 3.334 0 0 0 6.666 0" style="display:inline;fill:#262626;fill-opacity:1;fill-rule:nonzero;stroke:none;stroke-width:0;stroke-dasharray:none" transform="translate(0 -1)"/><path d="M43.413 25.397a.912.913 0 1 0-1.825 0 .912.913 0 0 0 1.825 0" style="display:inline;fill:#fff;fill-opacity:1;fill-rule:nonzero;stroke:none;stroke-width:0;stroke-dasharray:none" transform="translate(0 -1)"/></g><g style="display:inline;fill:#262626;fill-opacity:1;stroke-width:0;stroke-dasharray:none"><path d="M21.503 38a9.01 9.01 0 0 1-9.003-9c.008-4.968 7.97-8.993 12.938-9 4.963 0 5.062 4.04 5.062 9a8.942 8.942 0 0 1-2.635 6.364A8.937 8.937 0 0 1 21.502 38" style="display:inline;fill:#decd87;fill-opacity:1;fill-rule:nonzero;stroke:none;stroke-width:0;stroke-dasharray:none" transform="translate(0 -1)"/><path d="M20.502 33a6.007 6.007 0 0 1-6.002-6c.005-3.312 5.313-5.995 8.625-6 3.309 0 3.375 2.693 3.375 6 0 1.603-.624 3.11-1.757 4.243A5.958 5.958 0 0 1 20.502 33" style="display:inline;fill:#c8ab37;fill-opacity:1;fill-rule:nonzero;stroke:none;stroke-width:0;stroke-dasharray:none" transform="matrix(1.16667 0 0 1.16666 -1.417 -4.5)"/><path d="M22.502 32.5a5.006 5.006 0 0 1-5.002-5 5.008 5.007 0 0 1 5-5c2.757 0 5 2.244 5 5 0 1.336-.52 2.592-1.464 3.536a4.965 4.965 0 0 1-3.534 1.464" style="display:inline;fill:#fff;fill-opacity:1;fill-rule:nonzero;stroke:none;stroke-width:0;stroke-dasharray:none" transform="translate(0 -1)"/><path d="M25.833 27.5a3.334 3.334 0 1 0-6.667 0 3.334 3.334 0 0 0 6.667 0" style="display:inline;fill:#262626;fill-opacity:1;fill-rule:nonzero;stroke:none;stroke-width:0;stroke-dasharray:none" transform="translate(0 -1)"/><path d="M22.5 26.31a.913.912 0 1 0 0-1.825.913.912 0 0 0 0 1.825" style="display:inline;fill:#fff;fill-opacity:1;fill-rule:nonzero;stroke:none;stroke-width:0;stroke-dasharray:none" transform="translate(0 -1)"/></g><path d="M38.345 48h-12.69c-.873 0-.873-3 0-3h12.69c.873 0 .873 3 0 3" style="display:inline;fill:#262626;fill-opacity:1;stroke:none;stroke-width:0;stroke-dasharray:none;stroke-opacity:1"/><path d="M36.548 12.516 35.19 1.514l-1.85-.18 1.233 9.971-4.167.968 2.492 11.51s-.27-8.104-.771-10.424z" style="fill:#262626;fill-opacity:1;stroke:none;stroke-width:0;stroke-dasharray:none"/></svg>