<svg xmlns="http://www.w3.org/2000/svg" viewBox="0 0 64 64"><!-- created by Mazeltof (https://www.mazeland.fr/) --><path d="M49.993 12.734C45.122 5.197 38.793 1.03 32.17 1.001L32.099 1C25.501 1 19.16 5.109 14.235 12.575 9.678 19.486 7.04 28.249 7 36.616c-.038 8.137 2.46 14.921 7.226 19.619 4.394 4.331 10.662 6.733 17.65 6.764l.137.001c6.932 0 13.17-2.344 17.575-6.607 4.81-4.655 7.373-11.417 7.412-19.554.039-8.367-2.515-17.153-7.007-24.105" style="display:inline;fill:#262626;fill-opacity:1;fill-rule:nonzero;stroke:none;stroke-width:0;stroke-dasharray:none"/><path d="M55 36.737C54.924 52.841 44.587 61.057 31.884 61 19.182 60.943 8.924 52.635 9 36.53 9.076 20.427 19.457 2.942 32.16 3c12.7.056 22.915 17.633 22.84 33.736" style="display:inline;fill:#fd5;fill-opacity:1;fill-rule:nonzero;stroke:none;stroke-width:0;stroke-dasharray:none"/><path d="M40.845 6c5.133 6.02 8.438 15.254 8.397 24.009-.07 14.642-9.47 22.11-21.02 22.06C19.549 52.028 12.129 47.76 9 39.437c.982 14.474 10.844 21.934 22.904 21.988 12.762.058 23.145-8.194 23.222-24.37C55.184 24.77 49.28 11.635 40.845 6" style="display:inline;fill:#fc0;fill-opacity:1;fill-rule:nonzero;stroke:none;stroke-width:0;stroke-dasharray:none"/><path d="M29.544 19.007c-3.377 4.87-8.528 7.245-11.506 5.304-2.978-1.94-2.654-7.461.723-12.331 3.377-4.87 8.528-7.244 11.506-5.303 2.978 1.94 2.654 7.46-.723 12.33" style="display:inline;fill:#fea;fill-opacity:1;fill-rule:nonzero;stroke:none;stroke-width:0;stroke-dasharray:none"/><g style="display:inline"><path d="M43.501 35c-1.87 0-3.63-.727-4.952-2.05A6.948 6.948 0 0 1 36.5 28c0-3.86 3.14-7 7-7s7 3.141 7 7.002a6.954 6.954 0 0 1-2.05 4.949A6.952 6.952 0 0 1 43.5 35" style="fill:#fff;fill-opacity:1;fill-rule:nonzero;stroke:none;stroke-width:0;stroke-dasharray:none"/><path d="M48.5 28a5 5 0 1 0-10 0 5 5 0 0 0 10 0" style="fill:#262626;fill-opacity:1;fill-rule:nonzero;stroke:none;stroke-width:0;stroke-dasharray:none"/><path d="M44.596 25.477a1.095 1.095 0 1 0-2.19 0 1.095 1.095 0 0 0 2.19 0" style="fill:#fff;fill-opacity:1;fill-rule:nonzero;stroke:none;stroke-width:0;stroke-dasharray:none"/></g><g style="display:inline"><path d="M20.502 35c-3.861 0-7.002-3.14-7.002-7 .002-3.86 3.143-7 7-7 3.86 0 7 3.141 7 7 0 1.87-.728 3.628-2.05 4.95A6.95 6.95 0 0 1 20.502 35" style="display:inline;fill:#fff;fill-opacity:1;fill-rule:nonzero;stroke:none;stroke-width:0;stroke-dasharray:none"/><path d="M25.5 28a5 5 0 1 0-10.001 0A5 5 0 0 0 25.5 28" style="fill:#262626;fill-opacity:1;fill-rule:nonzero;stroke:none;stroke-width:0;stroke-dasharray:none"/><path d="M20.5 26.572a1.095 1.095 0 1 0 0-2.19 1.095 1.095 0 0 0 0 2.19" style="fill:#fff;fill-opacity:1;fill-rule:nonzero;stroke:none;stroke-width:0;stroke-dasharray:none"/></g><g style="clip-rule:evenodd;display:inline;fill-rule:evenodd;stroke:none;stroke-width:0;stroke-linejoin:round;stroke-miterlimit:2;stroke-dasharray:none;stroke-opacity:1"><path d="M451.286 939.711c-.619 1.999-2.832 3.092-4.941 2.439l-305.763-93.947c-2.11-.653-3.319-2.805-2.701-4.804l-4.109-33.999c.619-2 2.832-3.092 4.942-2.438l318.934 98.657c2.11.653 3.319 2.804 2.701 4.804z" style="display:inline;fill:#fff;fill-rule:nonzero;stroke:none;stroke-width:0;stroke-dasharray:none;stroke-opacity:1" transform="matrix(.04136 0 0 .04136 1.104 2.472)"/><g style="stroke:none;stroke-width:0;stroke-dasharray:none;stroke-opacity:1"><path d="M566.18 1133.01c.631 2-.565 4.16-2.67 4.82l-307.14 101.746c-2.106.66-6.942.122-7.572-1.868l-20.949-29.918c-.63-2 .565-4.16 2.671-4.82l321.464-101.6c2.106-.67 4.326.41 4.957 2.41z" style="fill:#fff;fill-rule:nonzero;stroke:none;stroke-width:0;stroke-dasharray:none;stroke-opacity:1" transform="matrix(.04136 0 0 .04136 1.545 2.472)"/></g><path d="M1033.617 937.844c.62 2 2.83 3.092 4.94 2.44l311.92-95.573c2.11-.653 2.22-2.315 2.7-4.804l2.308-32.633c.11-1.99-1.058-3.227-3.168-2.573l-325.06 99.051c-2.11.653-3.32 2.804-2.7 4.804zM915.152 1131.143c-.63 2 .566 4.16 2.672 4.82l306.822 99.398c6.688 1.324 8.674.244 9.304-1.756l19.535-27.682c.63-2-.57-4.16-2.67-4.82l-321.468-101.6c-2.105-.67-4.326.41-4.957 2.41z" style="fill:#fff;fill-rule:nonzero;stroke:none;stroke-width:0;stroke-dasharray:none;stroke-opacity:1" transform="matrix(.04136 0 0 .04136 1.104 2.472)"/><path d="M1102.25 1192.59c0 17.08-18.08 30.89-40.38 30.89 0 0-161.491 31.96-311.101 31.96-118.411 0-309.646-31.96-309.646-31.96-22.275 0-40.349-13.81-40.349-30.89V902.364c0-17.118 18.073-30.887 40.349-30.887 0 0 182.647 31.605 309.646 29.98 123.758-1.584 311.101-29.98 311.101-29.98 22.3 0 40.38 13.769 40.38 30.887z" style="clip-rule:evenodd;fill:#fff;fill-rule:nonzero;stroke:none;stroke-width:0;stroke-linejoin:round;stroke-miterlimit:2;stroke-dasharray:none;stroke-opacity:1" transform="matrix(.04136 0 0 .04136 1.104 2.472)"/></g></svg>