<svg xmlns="http://www.w3.org/2000/svg" viewBox="0 0 64 64"><!-- created by Mazeltof (https://www.mazeland.fr/) --><path d="M49.993 12.734C45.122 5.197 38.793 1.03 32.17 1.001L32.099 1C25.501 1 19.16 5.109 14.235 12.575 9.678 19.486 7.04 28.249 7 36.616c-.038 8.137 2.46 14.921 7.226 19.619 4.394 4.331 10.662 6.733 17.65 6.764l.137.001c6.932 0 13.17-2.344 17.575-6.607 4.81-4.655 7.373-11.417 7.412-19.554.039-8.367-2.515-17.153-7.007-24.105" style="display:inline;fill:#262626;fill-opacity:1;fill-rule:nonzero;stroke:none;stroke-width:0;stroke-dasharray:none"/><path d="M55 36.737C54.924 52.841 44.587 61.057 31.884 61 19.182 60.943 8.924 52.635 9 36.53c.076-16.103 10.457-33.588 23.16-33.53C44.86 3.056 55.075 20.633 55 36.736" style="display:inline;fill:#fd5;fill-opacity:1;fill-rule:nonzero;stroke:none;stroke-width:0;stroke-dasharray:none"/><path d="M40.845 6c5.133 6.02 8.438 15.254 8.397 24.009-.07 14.642-9.47 22.11-21.02 22.06C19.549 52.028 12.129 47.76 9 39.437c.982 14.474 10.844 21.934 22.904 21.988 12.762.058 23.145-8.194 23.222-24.37C55.184 24.77 49.28 11.635 40.845 6" style="display:inline;fill:#fc0;fill-opacity:1;fill-rule:nonzero;stroke:none;stroke-width:0;stroke-dasharray:none"/><path d="M29.544 19.007c-3.377 4.87-8.528 7.245-11.506 5.304-2.978-1.94-2.654-7.461.723-12.331 3.377-4.87 8.528-7.244 11.506-5.303 2.978 1.94 2.654 7.46-.723 12.33" style="display:inline;fill:#fea;fill-opacity:1;fill-rule:nonzero;stroke:none;stroke-width:0;stroke-dasharray:none"/><g style="display:inline"><path d="M26.965 16.335c-3.34-.814-6.714.144-9.204 2.613-.34.352-1.593-1.18-1.177-1.605 2.873-2.849 6.767-3.955 10.622-3.016.564.146.224 2.129-.24 2.008" style="fill:#262626;fill-opacity:1;stroke-width:1.0443"/><path d="M46.222 18.95c-2.47-2.498-5.842-3.383-9.2-2.414-.465.146-.786-1.92-.22-2.093 3.873-1.117 7.765-.097 10.616 2.785.413.429-.856 2.076-1.195 1.723" style="display:inline;fill:#262626;fill-opacity:1;stroke-width:1.06955"/></g><g style="display:inline"><path d="M44.001 35c-1.87 0-3.63-.727-4.952-2.05A6.948 6.948 0 0 1 37 28c0-3.86 3.14-7 7-7s7 3.141 7 7.002a6.954 6.954 0 0 1-2.05 4.949A6.952 6.952 0 0 1 44 35" style="fill:#fff;fill-opacity:1;fill-rule:nonzero;stroke:none;stroke-width:0;stroke-dasharray:none"/><path d="M49 28a5 5 0 1 0-10 0 5 5 0 0 0 10 0" style="fill:#262626;fill-opacity:1;fill-rule:nonzero;stroke:none;stroke-width:0;stroke-dasharray:none"/><path d="M45.192 30.096a1.095 1.095 0 1 0-2.191 0 1.095 1.095 0 0 0 2.19 0" style="fill:#fff;fill-opacity:1;fill-rule:nonzero;stroke:none;stroke-width:0;stroke-dasharray:none"/></g><g style="display:inline"><path d="M20.002 35C16.141 35 13 31.86 13 28c.002-3.86 3.143-7 7-7 3.86 0 7 3.141 7 7 0 1.87-.728 3.628-2.05 4.95A6.95 6.95 0 0 1 20.002 35" style="display:inline;fill:#fff;fill-opacity:1;fill-rule:nonzero;stroke:none;stroke-width:0;stroke-dasharray:none"/><path d="M25 28a5 5 0 1 0-10.001 0A5 5 0 0 0 25 28" style="fill:#262626;fill-opacity:1;fill-rule:nonzero;stroke:none;stroke-width:0;stroke-dasharray:none"/><path d="M20.095 31.191a1.095 1.095 0 1 0 0-2.19 1.095 1.095 0 0 0 0 2.19" style="fill:#fff;fill-opacity:1;fill-rule:nonzero;stroke:none;stroke-width:0;stroke-dasharray:none"/></g><g style="display:inline"><path d="M22.042 51c0-6.075 4.925-9 11-9s11 2.925 11 9-4.925 1-11 1-11 5.075-11-1z" style="fill:#37c871;fill-opacity:1;stroke:#262626;stroke-width:2;stroke-dasharray:none;stroke-opacity:1"/><path d="M23 50.5h20V63H23z" style="opacity:1;fill:#37c871;fill-opacity:1;fill-rule:evenodd;stroke:none;stroke-width:0;stroke-dasharray:none;stroke-opacity:1;paint-order:stroke fill markers"/></g></svg>