<svg xmlns="http://www.w3.org/2000/svg" viewBox="0 0 64 64"><!-- created by Mazeltof (https://www.mazeland.fr/) --><path d="M49.993 12.734C45.122 5.197 38.793 1.03 32.17 1.001L32.099 1C25.501 1 19.16 5.109 14.235 12.575 9.678 19.486 7.04 28.249 7 36.616c-.038 8.137 2.46 14.921 7.226 19.619 4.394 4.331 10.662 6.733 17.65 6.764l.137.001c6.932 0 13.17-2.344 17.575-6.607 4.81-4.655 7.373-11.417 7.412-19.554.039-8.367-2.515-17.153-7.007-24.105" style="display:inline;fill:#262626;fill-opacity:1;fill-rule:nonzero;stroke:none;stroke-width:0;stroke-dasharray:none"/><path d="M55 36.737C54.924 52.841 44.587 61.057 31.884 61 19.182 60.943 8.924 52.635 9 36.53 9.076 20.427 19.457 2.942 32.16 3c12.7.056 22.915 17.633 22.84 33.736" style="display:inline;fill:#b7c8be;fill-opacity:1;fill-rule:nonzero;stroke:none;stroke-width:0;stroke-dasharray:none"/><path d="M40.845 6c5.133 6.02 8.438 15.254 8.397 24.009-.07 14.642-9.47 22.11-21.02 22.06C19.549 52.028 12.129 47.76 9 39.437c.982 14.474 10.844 21.934 22.904 21.988 12.762.058 23.145-8.194 23.222-24.37C55.184 24.77 49.28 11.635 40.845 6" style="display:inline;fill:#93ac9d;fill-opacity:1;fill-rule:nonzero;stroke:none;stroke-width:0;stroke-dasharray:none"/><path d="M29.544 19.007c-3.377 4.87-8.528 7.245-11.506 5.304-2.978-1.94-2.654-7.461.723-12.331 3.377-4.87 8.528-7.244 11.506-5.303 2.978 1.94 2.654 7.46-.723 12.33" style="display:inline;fill:#dbe3de;fill-opacity:1;fill-rule:nonzero;stroke:none;stroke-width:0;stroke-dasharray:none"/><path d="M38.345 48h-12.69c-.873 0-.873-3 0-3h12.69c.873 0 .873 3 0 3" style="display:inline;fill:#262626;fill-opacity:1;stroke:none;stroke-width:0;stroke-dasharray:none;stroke-opacity:1"/><g style="display:inline"><path d="M43.557 35.998a7.864 7.864 0 0 1-5.6-2.318 7.856 7.856 0 0 1-2.317-5.597c0-4.365 3.55-7.916 7.915-7.916s7.916 3.552 7.916 7.918a7.863 7.863 0 0 1-2.318 5.596 7.861 7.861 0 0 1-5.598 2.317" style="display:inline;fill:#93ac9d;fill-opacity:1;fill-rule:nonzero;stroke:none;stroke-width:0;stroke-dasharray:none" transform="rotate(-45 53.638 41.977) scale(1.28571 .85714)"/><path d="M43.501 35c-1.87 0-3.63-.727-4.952-2.05A6.948 6.948 0 0 1 36.5 28c0-3.86 3.14-7 7-7s7 3.141 7 7.002a6.954 6.954 0 0 1-2.05 4.949A6.952 6.952 0 0 1 43.5 35" style="display:inline;fill:#262626;fill-opacity:1;fill-rule:nonzero;stroke:none;stroke-width:0;stroke-dasharray:none" transform="rotate(-45 53.638 41.977) scale(1.28571 .85714)"/><path d="M44.596 25.477a1.095 1.095 0 1 0-2.19 0 1.095 1.095 0 0 0 2.19 0" style="fill:#fff;fill-opacity:1;fill-rule:nonzero;stroke:none;stroke-width:0;stroke-dasharray:none" transform="rotate(-45 53.638 41.977) scale(1.28571 .85714)"/></g><g style="display:inline"><path d="M20.558 35.827c-4.366 0-7.918-3.55-7.918-7.915.003-4.365 3.554-7.915 7.916-7.915 4.364 0 7.915 3.551 7.915 7.915a7.864 7.864 0 0 1-2.318 5.597 7.859 7.859 18.927 0 1-5.595 2.318" style="display:inline;fill:#93ac9d;fill-opacity:1;fill-rule:nonzero;stroke:none;stroke-width:0;stroke-dasharray:none" transform="rotate(45 19.546 20.011) scale(1.28572 .85714)"/><path d="M20.502 35c-3.861 0-7.002-3.14-7.002-7 .002-3.86 3.143-7 7-7 3.86 0 7 3.141 7 7 0 1.87-.728 3.628-2.05 4.95A6.95 6.95 0 0 1 20.502 35" style="display:inline;fill:#262626;fill-opacity:1;fill-rule:nonzero;stroke:none;stroke-width:0;stroke-dasharray:none" transform="rotate(45 19.546 20.011) scale(1.28572 .85714)"/><path d="M20.5 26.572a1.095 1.095 0 1 0 0-2.19 1.095 1.095 0 0 0 0 2.19" style="fill:#fff;fill-opacity:1;fill-rule:nonzero;stroke:none;stroke-width:0;stroke-dasharray:none" transform="rotate(45 19.546 20.011) scale(1.28572 .85714)"/></g></svg>