<svg xmlns="http://www.w3.org/2000/svg" viewBox="0 0 64 64"><!-- created by Mazeltof (https://www.mazeland.fr/) --><path d="M49.993 12.734C45.122 5.197 38.793 1.03 32.17 1.001L32.099 1C25.501 1 19.16 5.109 14.235 12.575 9.678 19.486 7.04 28.249 7 36.616c-.038 8.137 2.46 14.921 7.226 19.619 4.394 4.331 10.662 6.733 17.65 6.764l.137.001c6.932 0 13.17-2.344 17.575-6.607 4.81-4.655 7.373-11.417 7.412-19.554.039-8.367-2.515-17.153-7.007-24.105" style="display:inline;fill:#262626;fill-opacity:1;fill-rule:nonzero;stroke:none;stroke-width:0;stroke-dasharray:none"/><path d="M55 36.737C54.924 52.841 44.587 61.057 31.884 61 19.182 60.943 8.924 52.635 9 36.53c.076-16.103 10.457-33.588 23.16-33.53C44.86 3.056 55.075 20.633 55 36.736" style="display:inline;fill:#fd5;fill-opacity:1;fill-rule:nonzero;stroke:none;stroke-width:0;stroke-dasharray:none"/><path d="M40.845 6c5.133 6.02 8.438 15.254 8.397 24.009-.07 14.642-9.47 22.11-21.02 22.06C19.549 52.028 12.129 47.76 9 39.437c.982 14.474 10.844 21.934 22.904 21.988 12.762.058 23.145-8.194 23.222-24.37C55.184 24.77 49.28 11.635 40.845 6" style="display:inline;fill:#fc0;fill-opacity:1;fill-rule:nonzero;stroke:none;stroke-width:0;stroke-dasharray:none"/><path d="M29.544 19.007c-3.377 4.87-8.528 7.245-11.506 5.304-2.978-1.94-2.654-7.461.723-12.331 3.377-4.87 8.528-7.244 11.506-5.303 2.978 1.94 2.654 7.46-.723 12.33" style="display:inline;fill:#fea;fill-opacity:1;fill-rule:nonzero;stroke:none;stroke-width:0;stroke-dasharray:none"/><g style="display:inline"><path d="M34.874 27c-.002-.002-1.212-1.027-3.067-1.027-1.607 0-2.198.752-2.222.783l.028-.04-2.113-1.763c.13-.2 1.351-1.953 4.307-1.953 2.8 0 4.618 1.6 4.693 1.668L34.873 27M12.036 23.477a.518.513 0 0 0-.445-.618l-3.033-.422A.473.468 0 0 0 8 22.91v3.237c0 .303.237.639.526.746l2.06.765a.466.46 0 0 0 .64-.342l.81-3.84" style="display:inline;fill:#262626;fill-opacity:1;fill-rule:nonzero;stroke:none;stroke-width:0;stroke-dasharray:none"/><path d="M20.437 20.2c-4.126 0-7.483 3.274-7.483 7.3s3.357 7.3 7.483 7.3c4.126 0 7.483-3.274 7.483-7.3s-3.357-7.3-7.483-7.3zm0 16.8c-5.37 0-9.737-4.262-9.737-9.5s4.368-9.5 9.737-9.5c5.37 0 9.736 4.262 9.736 9.5S25.805 37 20.437 37M51.964 23.477a.518.513 0 0 1 .445-.618l3.033-.422a.474.47 0 0 1 .558.473v3.237c0 .303-.237.639-.526.746l-2.06.765a.466.46 0 0 1-.64-.342l-.81-3.84" style="display:inline;fill:#262626;fill-opacity:1;fill-rule:nonzero;stroke:none;stroke-width:0;stroke-dasharray:none"/><path d="M36.08 27.5c0 4.026 3.357 7.3 7.483 7.3 4.126 0 7.483-3.274 7.483-7.3s-3.357-7.3-7.483-7.3c-4.126 0-7.483 3.274-7.483 7.3zm-2.254 0c0-5.238 4.368-9.5 9.737-9.5 5.37 0 9.737 4.262 9.737 9.5S48.932 37 43.563 37c-5.37 0-9.737-4.262-9.737-9.5" style="display:inline;fill:#262626;fill-opacity:1;fill-rule:nonzero;stroke:none;stroke-width:0;stroke-dasharray:none"/></g><g style="display:inline"><path d="M43.501 33a5.963 5.963 0 0 1-4.244-1.757A5.956 5.956 0 0 1 37.5 27c0-3.308 2.691-5.999 6-5.999 3.308 0 6 2.693 6 6.001a5.96 5.96 0 0 1-1.757 4.242A5.959 5.959 0 0 1 43.5 33" style="fill:#fff;fill-opacity:1;fill-rule:nonzero;stroke:none;stroke-width:0;stroke-dasharray:none"/><path d="M47.5 27a4 4 0 1 0-8 0 4 4 0 0 0 8 0" style="fill:#262626;fill-opacity:1;fill-rule:nonzero;stroke:none;stroke-width:0;stroke-dasharray:none"/><path d="M44.596 24.477a1.095 1.095 0 1 0-2.19 0 1.095 1.095 0 0 0 2.19 0" style="fill:#fff;fill-opacity:1;fill-rule:nonzero;stroke:none;stroke-width:0;stroke-dasharray:none"/></g><g style="display:inline"><path d="M20.502 33a6.007 6.007 0 0 1-6.002-6 6.009 6.009 0 0 1 6-6c3.309 0 6 2.693 6 6 0 1.603-.624 3.11-1.757 4.243A5.958 5.958 0 0 1 20.502 33" style="display:inline;fill:#fff;fill-opacity:1;fill-rule:nonzero;stroke:none;stroke-width:0;stroke-dasharray:none"/><path d="M24.5 27a4 4 0 1 0-8.001 0 4 4 0 0 0 8.001 0" style="fill:#262626;fill-opacity:1;fill-rule:nonzero;stroke:none;stroke-width:0;stroke-dasharray:none"/><path d="M20.5 25.572a1.095 1.095 0 1 0 0-2.19 1.095 1.095 0 0 0 0 2.19" style="fill:#fff;fill-opacity:1;fill-rule:nonzero;stroke:none;stroke-width:0;stroke-dasharray:none"/></g><path d="M40.628 43.259C39.335 42.852 36.741 41 35.003 41 32.695 41 32 42.596 32 42.596S31.3 41 28.993 41c-1.738 0-4.333 1.852-5.626 2.259-4.38 1.373-6.367-1.04-6.367-1.04S17.66 48 23.694 48c4.199 0 4.389-2.087 8.306-2.087 3.914 0 4.106 2.087 8.304 2.087C46.335 48 47 42.22 47 42.22s-1.989 2.412-6.372 1.039" style="display:inline;fill:#262626;fill-opacity:1;fill-rule:nonzero;stroke:none;stroke-width:0;stroke-dasharray:none"/><path d="M26.987 53.32c-.167.591-.185 1.562-.185 1.562-1.126-1.37-2.028-2.761-1.752-4.527.305-3.124 13.534-3.015 13.78-.412.482 1.613-.116 3.497-1.097 4.83.057-.585-.201-1.624-.201-1.624-.29 2.328-3.962 5.16-3.962 5.16.045-.683.028-1.92.028-1.92C33.253 57.383 31.15 60 31.15 60c-1.589-1.63-4.056-4.361-4.162-6.68" style="display:inline;fill:#262626;fill-opacity:1;fill-rule:nonzero;stroke:none;stroke-width:0;stroke-dasharray:none"/></svg>